<svg id="my-svg" width="100%" xmlns="http://www.w3.org/2000/svg" xmlns:xlink="http://www.w3.org/1999/xlink" class="flowchart" style="max-width: 1780.93px; background-color: white;" viewBox="0 0 1780.9296875 1201.8643798828125" role="graphics-document document" aria-roledescription="flowchart-v2"><style>#my-svg{font-family:"trebuchet ms",verdana,arial,sans-serif;font-size:16px;fill:#333;}@keyframes edge-animation-frame{from{stroke-dashoffset:0;}}@keyframes dash{to{stroke-dashoffset:0;}}#my-svg .edge-animation-slow{stroke-dasharray:9,5!important;stroke-dashoffset:900;animation:dash 50s linear infinite;stroke-linecap:round;}#my-svg .edge-animation-fast{stroke-dasharray:9,5!important;stroke-dashoffset:900;animation:dash 20s linear infinite;stroke-linecap:round;}#my-svg .error-icon{fill:#552222;}#my-svg .error-text{fill:#552222;stroke:#552222;}#my-svg .edge-thickness-normal{stroke-width:1px;}#my-svg .edge-thickness-thick{stroke-width:3.5px;}#my-svg .edge-pattern-solid{stroke-dasharray:0;}#my-svg .edge-thickness-invisible{stroke-width:0;fill:none;}#my-svg .edge-pattern-dashed{stroke-dasharray:3;}#my-svg .edge-pattern-dotted{stroke-dasharray:2;}#my-svg .marker{fill:#333333;stroke:#333333;}#my-svg .marker.cross{stroke:#333333;}#my-svg svg{font-family:"trebuchet ms",verdana,arial,sans-serif;font-size:16px;}#my-svg p{margin:0;}#my-svg .label{font-family:"trebuchet ms",verdana,arial,sans-serif;color:#333;}#my-svg .cluster-label text{fill:#333;}#my-svg .cluster-label span{color:#333;}#my-svg .cluster-label span p{background-color:transparent;}#my-svg .label text,#my-svg span{fill:#333;color:#333;}#my-svg .node rect,#my-svg .node circle,#my-svg .node ellipse,#my-svg .node polygon,#my-svg .node path{fill:#ECECFF;stroke:#9370DB;stroke-width:1px;}#my-svg .rough-node .label text,#my-svg .node .label text,#my-svg .image-shape .label,#my-svg .icon-shape .label{text-anchor:middle;}#my-svg .node .katex path{fill:#000;stroke:#000;stroke-width:1px;}#my-svg .rough-node .label,#my-svg .node .label,#my-svg .image-shape .label,#my-svg .icon-shape .label{text-align:center;}#my-svg .node.clickable{cursor:pointer;}#my-svg .root .anchor path{fill:#333333!important;stroke-width:0;stroke:#333333;}#my-svg .arrowheadPath{fill:#333333;}#my-svg .edgePath .path{stroke:#333333;stroke-width:2.0px;}#my-svg .flowchart-link{stroke:#333333;fill:none;}#my-svg .edgeLabel{background-color:rgba(232,232,232, 0.8);text-align:center;}#my-svg .edgeLabel p{background-color:rgba(232,232,232, 0.8);}#my-svg .edgeLabel rect{opacity:0.5;background-color:rgba(232,232,232, 0.8);fill:rgba(232,232,232, 0.8);}#my-svg .labelBkg{background-color:rgba(232, 232, 232, 0.5);}#my-svg .cluster rect{fill:#ffffde;stroke:#aaaa33;stroke-width:1px;}#my-svg .cluster text{fill:#333;}#my-svg .cluster span{color:#333;}#my-svg div.mermaidTooltip{position:absolute;text-align:center;max-width:200px;padding:2px;font-family:"trebuchet ms",verdana,arial,sans-serif;font-size:12px;background:hsl(80, 100%, 96.2745098039%);border:1px solid #aaaa33;border-radius:2px;pointer-events:none;z-index:100;}#my-svg .flowchartTitleText{text-anchor:middle;font-size:18px;fill:#333;}#my-svg rect.text{fill:none;stroke-width:0;}#my-svg .icon-shape,#my-svg .image-shape{background-color:rgba(232,232,232, 0.8);text-align:center;}#my-svg .icon-shape p,#my-svg .image-shape p{background-color:rgba(232,232,232, 0.8);padding:2px;}#my-svg .icon-shape .label rect,#my-svg .image-shape .label rect{opacity:0.5;background-color:rgba(232,232,232, 0.8);fill:rgba(232,232,232, 0.8);}#my-svg .label-icon{display:inline-block;height:1em;overflow:visible;vertical-align:-0.125em;}#my-svg .node .label-icon path{fill:currentColor;stroke:revert;stroke-width:revert;}#my-svg :root{--mermaid-font-family:"trebuchet ms",verdana,arial,sans-serif;}</style><g><marker id="my-svg_flowchart-v2-pointEnd" class="marker flowchart-v2" viewBox="0 0 10 10" refX="5" refY="5" markerUnits="userSpaceOnUse" markerWidth="8" markerHeight="8" orient="auto"><path d="M 0 0 L 10 5 L 0 10 z" class="arrowMarkerPath" style="stroke-width: 1; stroke-dasharray: 1, 0;"/></marker><marker id="my-svg_flowchart-v2-pointStart" class="marker flowchart-v2" viewBox="0 0 10 10" refX="4.5" refY="5" markerUnits="userSpaceOnUse" markerWidth="8" markerHeight="8" orient="auto"><path d="M 0 5 L 10 10 L 10 0 z" class="arrowMarkerPath" style="stroke-width: 1; stroke-dasharray: 1, 0;"/></marker><marker id="my-svg_flowchart-v2-circleEnd" class="marker flowchart-v2" viewBox="0 0 10 10" refX="11" refY="5" markerUnits="userSpaceOnUse" markerWidth="11" markerHeight="11" orient="auto"><circle cx="5" cy="5" r="5" class="arrowMarkerPath" style="stroke-width: 1; stroke-dasharray: 1, 0;"/></marker><marker id="my-svg_flowchart-v2-circleStart" class="marker flowchart-v2" viewBox="0 0 10 10" refX="-1" refY="5" markerUnits="userSpaceOnUse" markerWidth="11" markerHeight="11" orient="auto"><circle cx="5" cy="5" r="5" class="arrowMarkerPath" style="stroke-width: 1; stroke-dasharray: 1, 0;"/></marker><marker id="my-svg_flowchart-v2-crossEnd" class="marker cross flowchart-v2" viewBox="0 0 11 11" refX="12" refY="5.2" markerUnits="userSpaceOnUse" markerWidth="11" markerHeight="11" orient="auto"><path d="M 1,1 l 9,9 M 10,1 l -9,9" class="arrowMarkerPath" style="stroke-width: 2; stroke-dasharray: 1, 0;"/></marker><marker id="my-svg_flowchart-v2-crossStart" class="marker cross flowchart-v2" viewBox="0 0 11 11" refX="-1" refY="5.2" markerUnits="userSpaceOnUse" markerWidth="11" markerHeight="11" orient="auto"><path d="M 1,1 l 9,9 M 10,1 l -9,9" class="arrowMarkerPath" style="stroke-width: 2; stroke-dasharray: 1, 0;"/></marker><g class="root"><g class="clusters"><g class="cluster" id="DataStores" data-look="classic"><rect style="" x="610.4296875" y="1049" width="1097.21875" height="144.86443328857422"/><g class="cluster-label" transform="translate(1118.1171875, 1049)"><foreignObject width="81.84375" height="24"><div xmlns="http://www.w3.org/1999/xhtml" style="display: table-cell; white-space: nowrap; line-height: 1.5;"><span class="nodeLabel"><p>Data Stores</p></span></div></foreignObject></g></g><g class="cluster" id="BackendServices" data-look="classic"><rect style="" x="606.375" y="518" width="1166.5546875" height="481"/><g class="cluster-label" transform="translate(1128.23828125, 518)"><foreignObject width="122.828125" height="24"><div xmlns="http://www.w3.org/1999/xhtml" style="display: table-cell; white-space: nowrap; line-height: 1.5;"><span class="nodeLabel"><p>Backend Services</p></span></div></foreignObject></g></g><g class="cluster" id="Frontends" data-look="classic"><rect style="" x="8" y="518" width="578.375" height="152"/><g class="cluster-label" transform="translate(246.0078125, 518)"><foreignObject width="102.359375" height="24"><div xmlns="http://www.w3.org/1999/xhtml" style="display: table-cell; white-space: nowrap; line-height: 1.5;"><span class="nodeLabel"><p>Frontend Apps</p></span></div></foreignObject></g></g><g class="cluster" id="Gateway" data-look="classic"><rect style="" x="86.890625" y="340" width="1621.44921875" height="104"/><g class="cluster-label" transform="translate(844.232421875, 340)"><foreignObject width="106.765625" height="24"><div xmlns="http://www.w3.org/1999/xhtml" style="display: table-cell; white-space: nowrap; line-height: 1.5;"><span class="nodeLabel"><p>Gateway :8080</p></span></div></foreignObject></g></g><g class="cluster" id="ReverseProxy" data-look="classic"><rect style="" x="859.18359375" y="186" width="367.9375" height="104"/><g class="cluster-label" transform="translate(993.61328125, 186)"><foreignObject width="99.078125" height="24"><div xmlns="http://www.w3.org/1999/xhtml" style="display: table-cell; white-space: nowrap; line-height: 1.5;"><span class="nodeLabel"><p>Reverse Proxy</p></span></div></foreignObject></g></g><g class="cluster" id="Clients" data-look="classic"><rect style="" x="832.51953125" y="8" width="424.09375" height="104"/><g class="cluster-label" transform="translate(983.64453125, 8)"><foreignObject width="121.84375" height="24"><div xmlns="http://www.w3.org/1999/xhtml" style="display: table-cell; white-space: nowrap; line-height: 1.5;"><span class="nodeLabel"><p>Clients - Browser</p></span></div></foreignObject></g></g></g><g class="edgePaths"><path d="M947.129,87L947.129,91.167C947.129,95.333,947.129,103.667,947.129,114C947.129,124.333,947.129,136.667,947.129,149C947.129,161.333,947.129,173.667,954.631,183.695C962.133,193.723,977.137,201.446,984.639,205.308L992.141,209.169" id="L_Landlord_Caddy_0" class="edge-thickness-normal edge-pattern-solid edge-thickness-normal edge-pattern-solid flowchart-link" style=";" data-edge="true" data-et="edge" data-id="L_Landlord_Caddy_0" data-points="W3sieCI6OTQ3LjEyODkwNjI1LCJ5Ijo4N30seyJ4Ijo5NDcuMTI4OTA2MjUsInkiOjExMn0seyJ4Ijo5NDcuMTI4OTA2MjUsInkiOjE0OX0seyJ4Ijo5NDcuMTI4OTA2MjUsInkiOjE4Nn0seyJ4Ijo5OTUuNjk3ODY2NTg2NTM4NSwieSI6MjExfV0=" marker-end="url(#my-svg_flowchart-v2-pointEnd)"/><path d="M1149.176,87L1149.176,91.167C1149.176,95.333,1149.176,103.667,1149.176,114C1149.176,124.333,1149.176,136.667,1149.176,149C1149.176,161.333,1149.176,173.667,1141.674,183.695C1134.172,193.723,1119.167,201.446,1111.665,205.308L1104.163,209.169" id="L_TenantUser_Caddy_0" class="edge-thickness-normal edge-pattern-solid edge-thickness-normal edge-pattern-solid flowchart-link" style=";" data-edge="true" data-et="edge" data-id="L_TenantUser_Caddy_0" data-points="W3sieCI6MTE0OS4xNzU3ODEyNSwieSI6ODd9LHsieCI6MTE0OS4xNzU3ODEyNSwieSI6MTEyfSx7IngiOjExNDkuMTc1NzgxMjUsInkiOjE0OX0seyJ4IjoxMTQ5LjE3NTc4MTI1LCJ5IjoxODZ9LHsieCI6MTEwMC42MDY4MjA5MTM0NjE0LCJ5IjoyMTF9XQ==" marker-end="url(#my-svg_flowchart-v2-pointEnd)"/><path d="M1048.152,265L1048.152,269.167C1048.152,273.333,1048.152,281.667,1048.152,290C1048.152,298.333,1048.152,306.667,1048.152,315C1048.152,323.333,1048.152,331.667,1048.152,339.333C1048.152,347,1048.152,354,1048.152,357.5L1048.152,361" id="L_Caddy_GW_0" class="edge-thickness-normal edge-pattern-solid edge-thickness-normal edge-pattern-solid flowchart-link" style=";" data-edge="true" data-et="edge" data-id="L_Caddy_GW_0" data-points="W3sieCI6MTA0OC4xNTIzNDM3NSwieSI6MjY1fSx7IngiOjEwNDguMTUyMzQzNzUsInkiOjI5MH0seyJ4IjoxMDQ4LjE1MjM0Mzc1LCJ5IjozMTV9LHsieCI6MTA0OC4xNTIzNDM3NSwieSI6MzQwfSx7IngiOjEwNDguMTUyMzQzNzUsInkiOjM2NX1d" marker-end="url(#my-svg_flowchart-v2-pointEnd)"/><path d="M958.645,397.248L825.734,405.04C692.823,412.832,427.001,428.416,294.09,442.375C161.18,456.333,161.18,468.667,161.18,481C161.18,493.333,161.18,505.667,161.18,515.333C161.18,525,161.18,532,161.18,535.5L161.18,539" id="L_GW_LF_0" class="edge-thickness-normal edge-pattern-solid edge-thickness-normal edge-pattern-solid flowchart-link" style=";" data-edge="true" data-et="edge" data-id="L_GW_LF_0" data-points="W3sieCI6OTU4LjY0NDUzMTI1LCJ5IjozOTcuMjQ3NTE5NDMyNzYxNX0seyJ4IjoxNjEuMTc5Njg3NSwieSI6NDQ0fSx7IngiOjE2MS4xNzk2ODc1LCJ5Ijo0ODF9LHsieCI6MTYxLjE3OTY4NzUsInkiOjUxOH0seyJ4IjoxNjEuMTc5Njg3NSwieSI6NTQzfV0=" marker-end="url(#my-svg_flowchart-v2-pointEnd)"/><path d="M958.645,399.658L872.265,407.048C785.885,414.439,613.126,429.219,526.747,442.776C440.367,456.333,440.367,468.667,440.367,481C440.367,493.333,440.367,505.667,440.367,515.333C440.367,525,440.367,532,440.367,535.5L440.367,539" id="L_GW_TF_0" class="edge-thickness-normal edge-pattern-solid edge-thickness-normal edge-pattern-solid flowchart-link" style=";" data-edge="true" data-et="edge" data-id="L_GW_TF_0" data-points="W3sieCI6OTU4LjY0NDUzMTI1LCJ5IjozOTkuNjU3OTc5NDcyMDg0Mn0seyJ4Ijo0NDAuMzY3MTg3NSwieSI6NDQ0fSx7IngiOjQ0MC4zNjcxODc1LCJ5Ijo0ODF9LHsieCI6NDQwLjM2NzE4NzUsInkiOjUxOH0seyJ4Ijo0NDAuMzY3MTg3NSwieSI6NTQzfV0=" marker-end="url(#my-svg_flowchart-v2-pointEnd)"/><path d="M958.645,408.309L925.999,414.258C893.353,420.206,828.061,432.103,795.415,444.218C762.77,456.333,762.77,468.667,762.77,481C762.77,493.333,762.77,505.667,762.77,517.333C762.77,529,762.77,540,762.77,545.5L762.77,551" id="L_GW_AUTH_0" class="edge-thickness-normal edge-pattern-solid edge-thickness-normal edge-pattern-solid flowchart-link" style=";" data-edge="true" data-et="edge" data-id="L_GW_AUTH_0" data-points="W3sieCI6OTU4LjY0NDUzMTI1LCJ5Ijo0MDguMzA5MzQzMjYxNTE4Mn0seyJ4Ijo3NjIuNzY5NTMxMjUsInkiOjQ0NH0seyJ4Ijo3NjIuNzY5NTMxMjUsInkiOjQ4MX0seyJ4Ijo3NjIuNzY5NTMxMjUsInkiOjUxOH0seyJ4Ijo3NjIuNzY5NTMxMjUsInkiOjU1NX1d" marker-end="url(#my-svg_flowchart-v2-pointEnd)"/><path d="M1065.956,419L1068.704,423.167C1071.451,427.333,1076.946,435.667,1079.694,446C1082.441,456.333,1082.441,468.667,1082.441,481C1082.441,493.333,1082.441,505.667,1082.441,517.333C1082.441,529,1082.441,540,1082.441,545.5L1082.441,551" id="L_GW_API_0" class="edge-thickness-normal edge-pattern-solid edge-thickness-normal edge-pattern-solid flowchart-link" style=";" data-edge="true" data-et="edge" data-id="L_GW_API_0" data-points="W3sieCI6MTA2NS45NTYyODAwNDgwNzcsInkiOjQxOX0seyJ4IjoxMDgyLjQ0MTQwNjI1LCJ5Ijo0NDR9LHsieCI6MTA4Mi40NDE0MDYyNSwieSI6NDgxfSx7IngiOjEwODIuNDQxNDA2MjUsInkiOjUxOH0seyJ4IjoxMDgyLjQ0MTQwNjI1LCJ5Ijo1NTV9XQ==" marker-end="url(#my-svg_flowchart-v2-pointEnd)"/><path d="M1137.66,412.757L1160.115,417.964C1182.569,423.171,1227.478,433.586,1249.932,444.959C1272.387,456.333,1272.387,468.667,1272.387,481C1272.387,493.333,1272.387,505.667,1272.387,524.5C1272.387,543.333,1272.387,568.667,1272.387,594C1272.387,619.333,1272.387,644.667,1272.387,665.5C1272.387,686.333,1272.387,702.667,1272.387,725.5C1272.387,748.333,1272.387,777.667,1272.387,803C1272.387,828.333,1272.387,849.667,1265.756,864.166C1259.126,878.666,1245.865,886.332,1239.235,890.165L1232.605,893.998" id="L_GW_PDF_0" class="edge-thickness-normal edge-pattern-solid edge-thickness-normal edge-pattern-solid flowchart-link" style=";" data-edge="true" data-et="edge" data-id="L_GW_PDF_0" data-points="W3sieCI6MTEzNy42NjAxNTYyNSwieSI6NDEyLjc1Njg4MTA1MzU4NTF9LHsieCI6MTI3Mi4zODY3MTg3NSwieSI6NDQ0fSx7IngiOjEyNzIuMzg2NzE4NzUsInkiOjQ4MX0seyJ4IjoxMjcyLjM4NjcxODc1LCJ5Ijo1MTh9LHsieCI6MTI3Mi4zODY3MTg3NSwieSI6NTk0fSx7IngiOjEyNzIuMzg2NzE4NzUsInkiOjY3MH0seyJ4IjoxMjcyLjM4NjcxODc1LCJ5Ijo3MTl9LHsieCI6MTI3Mi4zODY3MTg3NSwieSI6ODA3fSx7IngiOjEyNzIuMzg2NzE4NzUsInkiOjg3MX0seyJ4IjoxMjI5LjE0MTc4NDY2Nzk2ODgsInkiOjg5Nn1d" marker-end="url(#my-svg_flowchart-v2-pointEnd)"/><path d="M1137.66,405.102L1181.951,411.585C1226.242,418.068,1314.824,431.034,1359.115,443.684C1403.406,456.333,1403.406,468.667,1403.406,481C1403.406,493.333,1403.406,505.667,1403.406,524.5C1403.406,543.333,1403.406,568.667,1403.406,594C1403.406,619.333,1403.406,644.667,1403.406,665.5C1403.406,686.333,1403.406,702.667,1403.406,725.5C1403.406,748.333,1403.406,777.667,1403.406,803C1403.406,828.333,1403.406,849.667,1403.406,863.833C1403.406,878,1403.406,885,1403.406,888.5L1403.406,892" id="L_GW_TAPI_0" class="edge-thickness-normal edge-pattern-solid edge-thickness-normal edge-pattern-solid flowchart-link" style=";" data-edge="true" data-et="edge" data-id="L_GW_TAPI_0" data-points="W3sieCI6MTEzNy42NjAxNTYyNSwieSI6NDA1LjEwMTYzMjg1NTAyMjN9LHsieCI6MTQwMy40MDYyNSwieSI6NDQ0fSx7IngiOjE0MDMuNDA2MjUsInkiOjQ4MX0seyJ4IjoxNDAzLjQwNjI1LCJ5Ijo1MTh9LHsieCI6MTQwMy40MDYyNSwieSI6NTk0fSx7IngiOjE0MDMuNDA2MjUsInkiOjY3MH0seyJ4IjoxNDAzLjQwNjI1LCJ5Ijo3MTl9LHsieCI6MTQwMy40MDYyNSwieSI6ODA3fSx7IngiOjE0MDMuNDA2MjUsInkiOjg3MX0seyJ4IjoxNDAzLjQwNjI1LCJ5Ijo4OTZ9XQ==" marker-end="url(#my-svg_flowchart-v2-pointEnd)"/><path d="M1137.66,399.858L1221.464,407.215C1305.268,414.572,1472.876,429.286,1556.68,442.81C1640.484,456.333,1640.484,468.667,1640.484,481C1640.484,493.333,1640.484,505.667,1640.484,524.5C1640.484,543.333,1640.484,568.667,1640.484,594C1640.484,619.333,1640.484,644.667,1640.484,665.5C1640.484,686.333,1640.484,702.667,1640.484,725.5C1640.484,748.333,1640.484,777.667,1640.484,803C1640.484,828.333,1640.484,849.667,1640.484,863.833C1640.484,878,1640.484,885,1640.484,888.5L1640.484,892" id="L_GW_RESET_0" class="edge-thickness-normal edge-pattern-dotted edge-thickness-normal edge-pattern-solid flowchart-link" style=";" data-edge="true" data-et="edge" data-id="L_GW_RESET_0" data-points="W3sieCI6MTEzNy42NjAxNTYyNSwieSI6Mzk5Ljg1Nzc2NTU4NDkxNjZ9LHsieCI6MTY0MC40ODQzNzUsInkiOjQ0NH0seyJ4IjoxNjQwLjQ4NDM3NSwieSI6NDgxfSx7IngiOjE2NDAuNDg0Mzc1LCJ5Ijo1MTh9LHsieCI6MTY0MC40ODQzNzUsInkiOjU5NH0seyJ4IjoxNjQwLjQ4NDM3NSwieSI6NjcwfSx7IngiOjE2NDAuNDg0Mzc1LCJ5Ijo3MTl9LHsieCI6MTY0MC40ODQzNzUsInkiOjgwN30seyJ4IjoxNjQwLjQ4NDM3NSwieSI6ODcxfSx7IngiOjE2NDAuNDg0Mzc1LCJ5Ijo4OTZ9XQ==" marker-end="url(#my-svg_flowchart-v2-pointEnd)"/><path d="M705.121,633L696.006,639.167C686.891,645.333,668.66,657.667,659.545,672C650.43,686.333,650.43,702.667,650.43,725.5C650.43,748.333,650.43,777.667,650.43,803C650.43,828.333,650.43,849.667,650.43,871C650.43,892.333,650.43,913.667,650.43,935C650.43,956.333,650.43,977.667,650.43,992.5C650.43,1007.333,650.43,1015.667,650.43,1024C650.43,1032.333,650.43,1040.667,714.159,1055.506C777.888,1070.346,905.347,1091.691,969.076,1102.364L1032.805,1113.037" id="L_AUTH_MONGO_0" class="edge-thickness-normal edge-pattern-solid edge-thickness-normal edge-pattern-solid flowchart-link" style=";" data-edge="true" data-et="edge" data-id="L_AUTH_MONGO_0" data-points="W3sieCI6NzA1LjEyMTQ1MzUzNjE4NDIsInkiOjYzM30seyJ4Ijo2NTAuNDI5Njg3NSwieSI6NjcwfSx7IngiOjY1MC40Mjk2ODc1LCJ5Ijo3MTl9LHsieCI6NjUwLjQyOTY4NzUsInkiOjgwN30seyJ4Ijo2NTAuNDI5Njg3NSwieSI6ODcxfSx7IngiOjY1MC40Mjk2ODc1LCJ5Ijo5MzV9LHsieCI6NjUwLjQyOTY4NzUsInkiOjk5OX0seyJ4Ijo2NTAuNDI5Njg3NSwieSI6MTAyNH0seyJ4Ijo2NTAuNDI5Njg3NSwieSI6MTA0OX0seyJ4IjoxMDM2Ljc1LCJ5IjoxMTEzLjY5NzE4MTc4NTc5NH1d" marker-end="url(#my-svg_flowchart-v2-pointEnd)"/><path d="M740.193,633L736.623,639.167C733.053,645.333,725.913,657.667,722.343,672C718.773,686.333,718.773,702.667,718.773,725.5C718.773,748.333,718.773,777.667,718.773,803C718.773,828.333,718.773,849.667,718.773,871C718.773,892.333,718.773,913.667,718.773,935C718.773,956.333,718.773,977.667,718.773,992.5C718.773,1007.333,718.773,1015.667,718.773,1024C718.773,1032.333,718.773,1040.667,858.43,1056.304C998.087,1071.942,1277.4,1094.884,1417.056,1106.355L1556.713,1117.826" id="L_AUTH_REDIS_0" class="edge-thickness-normal edge-pattern-solid edge-thickness-normal edge-pattern-solid flowchart-link" style=";" data-edge="true" data-et="edge" data-id="L_AUTH_REDIS_0" data-points="W3sieCI6NzQwLjE5MjU4ODQwNDYwNTMsInkiOjYzM30seyJ4Ijo3MTguNzczNDM3NSwieSI6NjcwfSx7IngiOjcxOC43NzM0Mzc1LCJ5Ijo3MTl9LHsieCI6NzE4Ljc3MzQzNzUsInkiOjgwN30seyJ4Ijo3MTguNzczNDM3NSwieSI6ODcxfSx7IngiOjcxOC43NzM0Mzc1LCJ5Ijo5MzV9LHsieCI6NzE4Ljc3MzQzNzUsInkiOjk5OX0seyJ4Ijo3MTguNzczNDM3NSwieSI6MTAyNH0seyJ4Ijo3MTguNzczNDM3NSwieSI6MTA0OX0seyJ4IjoxNTYwLjY5OTIxODc1LCJ5IjoxMTE4LjE1Mzc3MDk2ODg2OX1d" marker-end="url(#my-svg_flowchart-v2-pointEnd)"/><path d="M817.082,633L825.67,639.167C834.258,645.333,851.434,657.667,860.021,672C868.609,686.333,868.609,702.667,868.609,718.333C868.609,734,868.609,749,868.609,756.5L868.609,764" id="L_AUTH_EMAIL_0" class="edge-thickness-normal edge-pattern-solid edge-thickness-normal edge-pattern-solid flowchart-link" style=";" data-edge="true" data-et="edge" data-id="L_AUTH_EMAIL_0" data-points="W3sieCI6ODE3LjA4MjA4MjY0ODAyNjQsInkiOjYzM30seyJ4Ijo4NjguNjA5Mzc1LCJ5Ijo2NzB9LHsieCI6ODY4LjYwOTM3NSwieSI6NzE5fSx7IngiOjg2OC42MDkzNzUsInkiOjc2OH1d" marker-end="url(#my-svg_flowchart-v2-pointEnd)"/><path d="M1049.601,633L1044.409,639.167C1039.216,645.333,1028.831,657.667,1023.638,672C1018.445,686.333,1018.445,702.667,1018.445,725.5C1018.445,748.333,1018.445,777.667,1018.445,803C1018.445,828.333,1018.445,849.667,1018.445,871C1018.445,892.333,1018.445,913.667,1018.445,935C1018.445,956.333,1018.445,977.667,1018.445,992.5C1018.445,1007.333,1018.445,1015.667,1018.445,1024C1018.445,1032.333,1018.445,1040.667,1021.769,1049.51C1025.093,1058.354,1031.74,1067.708,1035.064,1072.385L1038.388,1077.062" id="L_API_MONGO_0" class="edge-thickness-normal edge-pattern-solid edge-thickness-normal edge-pattern-solid flowchart-link" style=";" data-edge="true" data-et="edge" data-id="L_API_MONGO_0" data-points="W3sieCI6MTA0OS42MDEzMDU1MDk4NjgzLCJ5Ijo2MzN9LHsieCI6MTAxOC40NDUzMTI1LCJ5Ijo2NzB9LHsieCI6MTAxOC40NDUzMTI1LCJ5Ijo3MTl9LHsieCI6MTAxOC40NDUzMTI1LCJ5Ijo4MDd9LHsieCI6MTAxOC40NDUzMTI1LCJ5Ijo4NzF9LHsieCI6MTAxOC40NDUzMTI1LCJ5Ijo5MzV9LHsieCI6MTAxOC40NDUzMTI1LCJ5Ijo5OTl9LHsieCI6MTAxOC40NDUzMTI1LCJ5IjoxMDI0fSx7IngiOjEwMTguNDQ1MzEyNSwieSI6MTA0OX0seyJ4IjoxMDQwLjcwNDgwOTIwMTgzMzUsInkiOjEwODAuMzIyNjMwMDQzMjE0NX1d" marker-end="url(#my-svg_flowchart-v2-pointEnd)"/><path d="M1064.846,633L1062.063,639.167C1059.281,645.333,1053.717,657.667,1050.935,672C1048.152,686.333,1048.152,702.667,1032.089,718.707C1016.025,734.747,983.898,750.493,967.835,758.366L951.771,766.24" id="L_API_EMAIL_0" class="edge-thickness-normal edge-pattern-solid edge-thickness-normal edge-pattern-solid flowchart-link" style=";" data-edge="true" data-et="edge" data-id="L_API_EMAIL_0" data-points="W3sieCI6MTA2NC44NDU3MDMxMjUsInkiOjYzM30seyJ4IjoxMDQ4LjE1MjM0Mzc1LCJ5Ijo2NzB9LHsieCI6MTA0OC4xNTIzNDM3NSwieSI6NzE5fSx7IngiOjk0OC4xNzk1NTQzMzIzODY0LCJ5Ijo3Njh9XQ==" marker-end="url(#my-svg_flowchart-v2-pointEnd)"/><path d="M1117.871,633L1123.474,639.167C1129.076,645.333,1140.28,657.667,1145.882,672C1151.484,686.333,1151.484,702.667,1151.484,725.5C1151.484,748.333,1151.484,777.667,1151.484,803C1151.484,828.333,1151.484,849.667,1152.043,863.842C1152.602,878.017,1153.72,885.033,1154.279,888.542L1154.838,892.05" id="L_API_PDF_0" class="edge-thickness-normal edge-pattern-solid edge-thickness-normal edge-pattern-solid flowchart-link" style=";" data-edge="true" data-et="edge" data-id="L_API_PDF_0" data-points="W3sieCI6MTExNy44NzEzNTA3NDAxMzE3LCJ5Ijo2MzN9LHsieCI6MTE1MS40ODQzNzUsInkiOjY3MH0seyJ4IjoxMTUxLjQ4NDM3NSwieSI6NzE5fSx7IngiOjExNTEuNDg0Mzc1LCJ5Ijo4MDd9LHsieCI6MTE1MS40ODQzNzUsInkiOjg3MX0seyJ4IjoxMTU1LjQ2NjkxODk0NTMxMjUsInkiOjg5Nn1d" marker-end="url(#my-svg_flowchart-v2-pointEnd)"/><path d="M1403.406,974L1403.406,978.167C1403.406,982.333,1403.406,990.667,1403.406,999C1403.406,1007.333,1403.406,1015.667,1403.406,1024C1403.406,1032.333,1403.406,1040.667,1358.343,1055.019C1313.28,1069.37,1223.153,1089.741,1178.09,1099.926L1133.027,1110.111" id="L_TAPI_MONGO_0" class="edge-thickness-normal edge-pattern-solid edge-thickness-normal edge-pattern-solid flowchart-link" style=";" data-edge="true" data-et="edge" data-id="L_TAPI_MONGO_0" data-points="W3sieCI6MTQwMy40MDYyNSwieSI6OTc0fSx7IngiOjE0MDMuNDA2MjUsInkiOjk5OX0seyJ4IjoxNDAzLjQwNjI1LCJ5IjoxMDI0fSx7IngiOjE0MDMuNDA2MjUsInkiOjEwNDl9LHsieCI6MTEyOS4xMjUsInkiOjExMTAuOTkyOTM2NjYzNzY0OH1d" marker-end="url(#my-svg_flowchart-v2-pointEnd)"/><path d="M829.05,846L824.824,850.167C820.597,854.333,812.144,862.667,807.918,877.5C803.691,892.333,803.691,913.667,803.691,935C803.691,956.333,803.691,977.667,803.691,992.5C803.691,1007.333,803.691,1015.667,803.691,1024C803.691,1032.333,803.691,1040.667,841.889,1054.741C880.087,1068.816,956.483,1088.632,994.68,1098.54L1032.878,1108.448" id="L_EMAIL_MONGO_0" class="edge-thickness-normal edge-pattern-solid edge-thickness-normal edge-pattern-solid flowchart-link" style=";" data-edge="true" data-et="edge" data-id="L_EMAIL_MONGO_0" data-points="W3sieCI6ODI5LjA0OTk4Nzc5Mjk2ODgsInkiOjg0Nn0seyJ4Ijo4MDMuNjkxNDA2MjUsInkiOjg3MX0seyJ4Ijo4MDMuNjkxNDA2MjUsInkiOjkzNX0seyJ4Ijo4MDMuNjkxNDA2MjUsInkiOjk5OX0seyJ4Ijo4MDMuNjkxNDA2MjUsInkiOjEwMjR9LHsieCI6ODAzLjY5MTQwNjI1LCJ5IjoxMDQ5fSx7IngiOjEwMzYuNzUsInkiOjExMDkuNDUxODc3MTQ3NTY2Nn1d" marker-end="url(#my-svg_flowchart-v2-pointEnd)"/><path d="M908.169,846L912.395,850.167C916.622,854.333,925.074,862.667,949.669,872.547C974.263,882.427,1014.999,893.854,1035.367,899.567L1055.735,905.281" id="L_EMAIL_PDF_0" class="edge-thickness-normal edge-pattern-solid edge-thickness-normal edge-pattern-solid flowchart-link" style=";" data-edge="true" data-et="edge" data-id="L_EMAIL_PDF_0" data-points="W3sieCI6OTA4LjE2ODc2MjIwNzAzMTIsInkiOjg0Nn0seyJ4Ijo5MzMuNTI3MzQzNzUsInkiOjg3MX0seyJ4IjoxMDU5LjU4NTkzNzUsInkiOjkwNi4zNjEyNDA5NDcxNDY3fV0=" marker-end="url(#my-svg_flowchart-v2-pointEnd)"/><path d="M1161.68,974L1161.68,978.167C1161.68,982.333,1161.68,990.667,1161.68,999C1161.68,1007.333,1161.68,1015.667,1161.68,1024C1161.68,1032.333,1161.68,1040.667,1156.671,1051.075C1151.663,1061.483,1141.646,1073.967,1136.637,1080.208L1131.628,1086.45" id="L_PDF_MONGO_0" class="edge-thickness-normal edge-pattern-solid edge-thickness-normal edge-pattern-solid flowchart-link" style=";" data-edge="true" data-et="edge" data-id="L_PDF_MONGO_0" data-points="W3sieCI6MTE2MS42Nzk2ODc1LCJ5Ijo5NzR9LHsieCI6MTE2MS42Nzk2ODc1LCJ5Ijo5OTl9LHsieCI6MTE2MS42Nzk2ODc1LCJ5IjoxMDI0fSx7IngiOjExNjEuNjc5Njg3NSwieSI6MTA0OX0seyJ4IjoxMTI5LjEyNSwieSI6MTA4OS41Njk4NTM2MDg0NzU2fV0=" marker-end="url(#my-svg_flowchart-v2-pointEnd)"/><path d="M1574.343,974L1567.277,978.167C1560.211,982.333,1546.078,990.667,1539.012,999C1531.945,1007.333,1531.945,1015.667,1531.945,1024C1531.945,1032.333,1531.945,1040.667,1465.467,1055.557C1398.988,1070.448,1266.031,1091.896,1199.553,1102.62L1133.074,1113.344" id="L_RESET_MONGO_0" class="edge-thickness-normal edge-pattern-solid edge-thickness-normal edge-pattern-solid flowchart-link" style=";" data-edge="true" data-et="edge" data-id="L_RESET_MONGO_0" data-points="W3sieCI6MTU3NC4zNDMzODM3ODkwNjI1LCJ5Ijo5NzR9LHsieCI6MTUzMS45NDUzMTI1LCJ5Ijo5OTl9LHsieCI6MTUzMS45NDUzMTI1LCJ5IjoxMDI0fSx7IngiOjE1MzEuOTQ1MzEyNSwieSI6MTA0OX0seyJ4IjoxMTI5LjEyNSwieSI6MTExMy45ODE0MjY0NTA2MTN9XQ==" marker-end="url(#my-svg_flowchart-v2-pointEnd)"/><path d="M1646.578,974L1647.229,978.167C1647.88,982.333,1649.182,990.667,1649.833,999C1650.484,1007.333,1650.484,1015.667,1650.484,1024C1650.484,1032.333,1650.484,1040.667,1647.808,1049.288C1645.131,1057.909,1639.778,1066.818,1637.101,1071.273L1634.425,1075.728" id="L_RESET_REDIS_0" class="edge-thickness-normal edge-pattern-solid edge-thickness-normal edge-pattern-solid flowchart-link" style=";" data-edge="true" data-et="edge" data-id="L_RESET_REDIS_0" data-points="W3sieCI6MTY0Ni41NzgxMjUsInkiOjk3NH0seyJ4IjoxNjUwLjQ4NDM3NSwieSI6OTk5fSx7IngiOjE2NTAuNDg0Mzc1LCJ5IjoxMDI0fSx7IngiOjE2NTAuNDg0Mzc1LCJ5IjoxMDQ5fSx7IngiOjE2MzIuMzY0Mzk0MDI2MzUxLCJ5IjoxMDc5LjE1NjQwMzg1MjEyNTV9XQ==" marker-end="url(#my-svg_flowchart-v2-pointEnd)"/></g><g class="edgeLabels"><g class="edgeLabel" transform="translate(947.12890625, 149)"><g class="label" data-id="L_Landlord_Caddy_0" transform="translate(-22.8359375, -12)"><foreignObject width="45.671875" height="24"><div xmlns="http://www.w3.org/1999/xhtml" class="labelBkg" style="display: table-cell; white-space: nowrap; line-height: 1.5; max-width: 200px; text-align: center;"><span class="edgeLabel"><p>HTTPS</p></span></div></foreignObject></g></g><g class="edgeLabel" transform="translate(1149.17578125, 149)"><g class="label" data-id="L_TenantUser_Caddy_0" transform="translate(-22.8359375, -12)"><foreignObject width="45.671875" height="24"><div xmlns="http://www.w3.org/1999/xhtml" class="labelBkg" style="display: table-cell; white-space: nowrap; line-height: 1.5; max-width: 200px; text-align: center;"><span class="edgeLabel"><p>HTTPS</p></span></div></foreignObject></g></g><g class="edgeLabel"><g class="label" data-id="L_Caddy_GW_0" transform="translate(0, 0)"><foreignObject width="0" height="0"><div xmlns="http://www.w3.org/1999/xhtml" class="labelBkg" style="display: table-cell; white-space: nowrap; line-height: 1.5; max-width: 200px; text-align: center;"><span class="edgeLabel"></span></div></foreignObject></g></g><g class="edgeLabel" transform="translate(161.1796875, 481)"><g class="label" data-id="L_GW_LF_0" transform="translate(-33.8046875, -12)"><foreignObject width="67.609375" height="24"><div xmlns="http://www.w3.org/1999/xhtml" class="labelBkg" style="display: table-cell; white-space: nowrap; line-height: 1.5; max-width: 200px; text-align: center;"><span class="edgeLabel"><p>/landlord</p></span></div></foreignObject></g></g><g class="edgeLabel" transform="translate(440.3671875, 481)"><g class="label" data-id="L_GW_TF_0" transform="translate(-27.8515625, -12)"><foreignObject width="55.703125" height="24"><div xmlns="http://www.w3.org/1999/xhtml" class="labelBkg" style="display: table-cell; white-space: nowrap; line-height: 1.5; max-width: 200px; text-align: center;"><span class="edgeLabel"><p>/tenant</p></span></div></foreignObject></g></g><g class="edgeLabel" transform="translate(762.76953125, 481)"><g class="label" data-id="L_GW_AUTH_0" transform="translate(-80.6875, -12)"><foreignObject width="161.375" height="24"><div xmlns="http://www.w3.org/1999/xhtml" class="labelBkg" style="display: table-cell; white-space: nowrap; line-height: 1.5; max-width: 200px; text-align: center;"><span class="edgeLabel"><p>/api/v2/authenticator</p></span></div></foreignObject></g></g><g class="edgeLabel" transform="translate(1082.44140625, 481)"><g class="label" data-id="L_GW_API_0" transform="translate(-27.4453125, -12)"><foreignObject width="54.890625" height="24"><div xmlns="http://www.w3.org/1999/xhtml" class="labelBkg" style="display: table-cell; white-space: nowrap; line-height: 1.5; max-width: 200px; text-align: center;"><span class="edgeLabel"><p>/api/v2</p></span></div></foreignObject></g></g><g class="edgeLabel" transform="translate(1272.38671875, 719)"><g class="label" data-id="L_GW_PDF_0" transform="translate(-70.5078125, -24)"><foreignObject width="141.015625" height="48"><div xmlns="http://www.w3.org/1999/xhtml" class="labelBkg" style="display: table-cell; white-space: nowrap; line-height: 1.5; max-width: 200px; text-align: center;"><span class="edgeLabel"><p>/api/v2/documents<br />/api/v2/templates</p></span></div></foreignObject></g></g><g class="edgeLabel" transform="translate(1403.40625, 719)"><g class="label" data-id="L_GW_TAPI_0" transform="translate(-38.7890625, -12)"><foreignObject width="77.578125" height="24"><div xmlns="http://www.w3.org/1999/xhtml" class="labelBkg" style="display: table-cell; white-space: nowrap; line-height: 1.5; max-width: 200px; text-align: center;"><span class="edgeLabel"><p>/tenantapi</p></span></div></foreignObject></g></g><g class="edgeLabel" transform="translate(1640.484375, 719)"><g class="label" data-id="L_GW_RESET_0" transform="translate(-37.578125, -12)"><foreignObject width="75.15625" height="24"><div xmlns="http://www.w3.org/1999/xhtml" class="labelBkg" style="display: table-cell; white-space: nowrap; line-height: 1.5; max-width: 200px; text-align: center;"><span class="edgeLabel"><p>/api/reset</p></span></div></foreignObject></g></g><g class="edgeLabel"><g class="label" data-id="L_AUTH_MONGO_0" transform="translate(0, 0)"><foreignObject width="0" height="0"><div xmlns="http://www.w3.org/1999/xhtml" class="labelBkg" style="display: table-cell; white-space: nowrap; line-height: 1.5; max-width: 200px; text-align: center;"><span class="edgeLabel"></span></div></foreignObject></g></g><g class="edgeLabel"><g class="label" data-id="L_AUTH_REDIS_0" transform="translate(0, 0)"><foreignObject width="0" height="0"><div xmlns="http://www.w3.org/1999/xhtml" class="labelBkg" style="display: table-cell; white-space: nowrap; line-height: 1.5; max-width: 200px; text-align: center;"><span class="edgeLabel"></span></div></foreignObject></g></g><g class="edgeLabel"><g class="label" data-id="L_AUTH_EMAIL_0" transform="translate(0, 0)"><foreignObject width="0" height="0"><div xmlns="http://www.w3.org/1999/xhtml" class="labelBkg" style="display: table-cell; white-space: nowrap; line-height: 1.5; max-width: 200px; text-align: center;"><span class="edgeLabel"></span></div></foreignObject></g></g><g class="edgeLabel"><g class="label" data-id="L_API_MONGO_0" transform="translate(0, 0)"><foreignObject width="0" height="0"><div xmlns="http://www.w3.org/1999/xhtml" class="labelBkg" style="display: table-cell; white-space: nowrap; line-height: 1.5; max-width: 200px; text-align: center;"><span class="edgeLabel"></span></div></foreignObject></g></g><g class="edgeLabel"><g class="label" data-id="L_API_EMAIL_0" transform="translate(0, 0)"><foreignObject width="0" height="0"><div xmlns="http://www.w3.org/1999/xhtml" class="labelBkg" style="display: table-cell; white-space: nowrap; line-height: 1.5; max-width: 200px; text-align: center;"><span class="edgeLabel"></span></div></foreignObject></g></g><g class="edgeLabel"><g class="label" data-id="L_API_PDF_0" transform="translate(0, 0)"><foreignObject width="0" height="0"><div xmlns="http://www.w3.org/1999/xhtml" class="labelBkg" style="display: table-cell; white-space: nowrap; line-height: 1.5; max-width: 200px; text-align: center;"><span class="edgeLabel"></span></div></foreignObject></g></g><g class="edgeLabel"><g class="label" data-id="L_TAPI_MONGO_0" transform="translate(0, 0)"><foreignObject width="0" height="0"><div xmlns="http://www.w3.org/1999/xhtml" class="labelBkg" style="display: table-cell; white-space: nowrap; line-height: 1.5; max-width: 200px; text-align: center;"><span class="edgeLabel"></span></div></foreignObject></g></g><g class="edgeLabel"><g class="label" data-id="L_EMAIL_MONGO_0" transform="translate(0, 0)"><foreignObject width="0" height="0"><div xmlns="http://www.w3.org/1999/xhtml" class="labelBkg" style="display: table-cell; white-space: nowrap; line-height: 1.5; max-width: 200px; text-align: center;"><span class="edgeLabel"></span></div></foreignObject></g></g><g class="edgeLabel"><g class="label" data-id="L_EMAIL_PDF_0" transform="translate(0, 0)"><foreignObject width="0" height="0"><div xmlns="http://www.w3.org/1999/xhtml" class="labelBkg" style="display: table-cell; white-space: nowrap; line-height: 1.5; max-width: 200px; text-align: center;"><span class="edgeLabel"></span></div></foreignObject></g></g><g class="edgeLabel"><g class="label" data-id="L_PDF_MONGO_0" transform="translate(0, 0)"><foreignObject width="0" height="0"><div xmlns="http://www.w3.org/1999/xhtml" class="labelBkg" style="display: table-cell; white-space: nowrap; line-height: 1.5; max-width: 200px; text-align: center;"><span class="edgeLabel"></span></div></foreignObject></g></g><g class="edgeLabel"><g class="label" data-id="L_RESET_MONGO_0" transform="translate(0, 0)"><foreignObject width="0" height="0"><div xmlns="http://www.w3.org/1999/xhtml" class="labelBkg" style="display: table-cell; white-space: nowrap; line-height: 1.5; max-width: 200px; text-align: center;"><span class="edgeLabel"></span></div></foreignObject></g></g><g class="edgeLabel"><g class="label" data-id="L_RESET_REDIS_0" transform="translate(0, 0)"><foreignObject width="0" height="0"><div xmlns="http://www.w3.org/1999/xhtml" class="labelBkg" style="display: table-cell; white-space: nowrap; line-height: 1.5; max-width: 200px; text-align: center;"><span class="edgeLabel"></span></div></foreignObject></g></g></g><g class="nodes"><g class="node default" id="flowchart-Landlord-0" transform="translate(947.12890625, 60)"><rect class="basic label-container" style="" x="-79.609375" y="-27" width="159.21875" height="54"/><g class="label" style="" transform="translate(-49.609375, -12)"><rect/><foreignObject width="99.21875" height="24"><div xmlns="http://www.w3.org/1999/xhtml" style="display: table-cell; white-space: nowrap; line-height: 1.5; max-width: 200px; text-align: center;"><span class="nodeLabel"><p>Landlord User</p></span></div></foreignObject></g></g><g class="node default" id="flowchart-TenantUser-1" transform="translate(1149.17578125, 60)"><rect class="basic label-container" style="" x="-72.4375" y="-27" width="144.875" height="54"/><g class="label" style="" transform="translate(-42.4375, -12)"><rect/><foreignObject width="84.875" height="24"><div xmlns="http://www.w3.org/1999/xhtml" style="display: table-cell; white-space: nowrap; line-height: 1.5; max-width: 200px; text-align: center;"><span class="nodeLabel"><p>Tenant User</p></span></div></foreignObject></g></g><g class="node default" id="flowchart-Caddy-2" transform="translate(1048.15234375, 238)"><rect class="basic label-container" style="" x="-100.890625" y="-27" width="201.78125" height="54"/><g class="label" style="" transform="translate(-70.890625, -12)"><rect/><foreignObject width="141.78125" height="24"><div xmlns="http://www.w3.org/1999/xhtml" style="display: table-cell; white-space: nowrap; line-height: 1.5; max-width: 200px; text-align: center;"><span class="nodeLabel"><p>Caddy - auto HTTPS</p></span></div></foreignObject></g></g><g class="node default" id="flowchart-GW-3" transform="translate(1048.15234375, 392)"><rect class="basic label-container" style="" x="-89.5078125" y="-27" width="179.015625" height="54"/><g class="label" style="" transform="translate(-59.5078125, -12)"><rect/><foreignObject width="119.015625" height="24"><div xmlns="http://www.w3.org/1999/xhtml" style="display: table-cell; white-space: nowrap; line-height: 1.5; max-width: 200px; text-align: center;"><span class="nodeLabel"><p>Gateway Service</p></span></div></foreignObject></g></g><g class="node default" id="flowchart-LF-4" transform="translate(161.1796875, 594)"><rect class="basic label-container" style="" x="-118.1796875" y="-51" width="236.359375" height="102"/><g class="label" style="" transform="translate(-88.1796875, -36)"><rect/><foreignObject width="176.359375" height="72"><div xmlns="http://www.w3.org/1999/xhtml" style="display: table-cell; white-space: nowrap; line-height: 1.5; max-width: 200px; text-align: center;"><span class="nodeLabel"><p>Landlord Frontend :8180<br />Next.js 14 Pages Router<br />React + MobX + Tailwind</p></span></div></foreignObject></g></g><g class="node default" id="flowchart-TF-5" transform="translate(440.3671875, 594)"><rect class="basic label-container" style="" x="-111.0078125" y="-51" width="222.015625" height="102"/><g class="label" style="" transform="translate(-81.0078125, -36)"><rect/><foreignObject width="162.015625" height="72"><div xmlns="http://www.w3.org/1999/xhtml" style="display: table-cell; white-space: nowrap; line-height: 1.5; max-width: 200px; text-align: center;"><span class="nodeLabel"><p>Tenant Frontend :8190<br />Next.js 14 App Router<br />React + RSC + Tailwind</p></span></div></foreignObject></g></g><g class="node default" id="flowchart-AUTH-6" transform="translate(762.76953125, 594)"><rect class="basic label-container" style="" x="-101.6875" y="-39" width="203.375" height="78"/><g class="label" style="" transform="translate(-71.6875, -24)"><rect/><foreignObject width="143.375" height="48"><div xmlns="http://www.w3.org/1999/xhtml" style="display: table-cell; white-space: nowrap; line-height: 1.5; max-width: 200px; text-align: center;"><span class="nodeLabel"><p>Authenticator :8000<br />JWT + bcrypt</p></span></div></foreignObject></g></g><g class="node default" id="flowchart-API-7" transform="translate(1082.44140625, 594)"><rect class="basic label-container" style="" x="-94.375" y="-39" width="188.75" height="78"/><g class="label" style="" transform="translate(-64.375, -24)"><rect/><foreignObject width="128.75" height="48"><div xmlns="http://www.w3.org/1999/xhtml" style="display: table-cell; white-space: nowrap; line-height: 1.5; max-width: 200px; text-align: center;"><span class="nodeLabel"><p>API :8200<br />Landlord REST API</p></span></div></foreignObject></g></g><g class="node default" id="flowchart-TAPI-8" transform="translate(1403.40625, 935)"><rect class="basic label-container" style="" x="-89.6328125" y="-39" width="179.265625" height="78"/><g class="label" style="" transform="translate(-59.6328125, -24)"><rect/><foreignObject width="119.265625" height="48"><div xmlns="http://www.w3.org/1999/xhtml" style="display: table-cell; white-space: nowrap; line-height: 1.5; max-width: 200px; text-align: center;"><span class="nodeLabel"><p>Tenant API :8250<br />Tenant REST API</p></span></div></foreignObject></g></g><g class="node default" id="flowchart-EMAIL-9" transform="translate(868.609375, 807)"><rect class="basic label-container" style="" x="-114.8359375" y="-39" width="229.671875" height="78"/><g class="label" style="" transform="translate(-84.8359375, -24)"><rect/><foreignObject width="169.671875" height="48"><div xmlns="http://www.w3.org/1999/xhtml" style="display: table-cell; white-space: nowrap; line-height: 1.5; max-width: 200px; text-align: center;"><span class="nodeLabel"><p>Emailer :8400<br />Gmail / Mailgun / SMTP</p></span></div></foreignObject></g></g><g class="node default" id="flowchart-PDF-10" transform="translate(1161.6796875, 935)"><rect class="basic label-container" style="" x="-102.09375" y="-39" width="204.1875" height="78"/><g class="label" style="" transform="translate(-72.09375, -24)"><rect/><foreignObject width="144.1875" height="48"><div xmlns="http://www.w3.org/1999/xhtml" style="display: table-cell; white-space: nowrap; line-height: 1.5; max-width: 200px; text-align: center;"><span class="nodeLabel"><p>PDFGenerator :8300<br />Puppeteer + EJS</p></span></div></foreignObject></g></g><g class="node default" id="flowchart-RESET-11" transform="translate(1640.484375, 935)"><rect class="basic label-container" style="" x="-97.4453125" y="-39" width="194.890625" height="78"/><g class="label" style="" transform="translate(-67.4453125, -24)"><rect/><foreignObject width="134.890625" height="48"><div xmlns="http://www.w3.org/1999/xhtml" style="display: table-cell; white-space: nowrap; line-height: 1.5; max-width: 200px; text-align: center;"><span class="nodeLabel"><p>ResetService :8900<br />DEV/CI only</p></span></div></foreignObject></g></g><g class="node default" id="flowchart-MONGO-12" transform="translate(1082.9375, 1121.432216644287)"><path d="M0,10.62392179413456 a46.1875,10.62392179413456 0,0,0 92.375,0 a46.1875,10.62392179413456 0,0,0 -92.375,0 l0,73.62392179413456 a46.1875,10.62392179413456 0,0,0 92.375,0 l0,-73.62392179413456" class="basic label-container" style="" transform="translate(-46.1875, -47.43588269120184)"/><g class="label" style="" transform="translate(-38.6875, -14)"><rect/><foreignObject width="77.375" height="48"><div xmlns="http://www.w3.org/1999/xhtml" style="display: table-cell; white-space: nowrap; line-height: 1.5; max-width: 200px; text-align: center;"><span class="nodeLabel"><p>MongoDB 7<br />:27017</p></span></div></foreignObject></g></g><g class="node default" id="flowchart-REDIS-13" transform="translate(1600.61328125, 1121.432216644287)"><path d="M0,9.74330612556259 a39.9140625,9.74330612556259 0,0,0 79.828125,0 a39.9140625,9.74330612556259 0,0,0 -79.828125,0 l0,72.74330612556258 a39.9140625,9.74330612556259 0,0,0 79.828125,0 l0,-72.74330612556258" class="basic label-container" style="" transform="translate(-39.9140625, -46.11495918834388)"/><g class="label" style="" transform="translate(-32.4140625, -14)"><rect/><foreignObject width="64.828125" height="48"><div xmlns="http://www.w3.org/1999/xhtml" style="display: table-cell; white-space: nowrap; line-height: 1.5; max-width: 200px; text-align: center;"><span class="nodeLabel"><p>Redis 7.4<br />:6379</p></span></div></foreignObject></g></g></g></g></g></svg>