<svg id="my-svg" width="100%" xmlns="http://www.w3.org/2000/svg" xmlns:xlink="http://www.w3.org/1999/xlink" class="flowchart" style="max-width: 1243.3px; background-color: white;" viewBox="0 0 1243.296875 526.3035888671875" role="graphics-document document" aria-roledescription="flowchart-v2"><style>#my-svg{font-family:"trebuchet ms",verdana,arial,sans-serif;font-size:16px;fill:#333;}@keyframes edge-animation-frame{from{stroke-dashoffset:0;}}@keyframes dash{to{stroke-dashoffset:0;}}#my-svg .edge-animation-slow{stroke-dasharray:9,5!important;stroke-dashoffset:900;animation:dash 50s linear infinite;stroke-linecap:round;}#my-svg .edge-animation-fast{stroke-dasharray:9,5!important;stroke-dashoffset:900;animation:dash 20s linear infinite;stroke-linecap:round;}#my-svg .error-icon{fill:#552222;}#my-svg .error-text{fill:#552222;stroke:#552222;}#my-svg .edge-thickness-normal{stroke-width:1px;}#my-svg .edge-thickness-thick{stroke-width:3.5px;}#my-svg .edge-pattern-solid{stroke-dasharray:0;}#my-svg .edge-thickness-invisible{stroke-width:0;fill:none;}#my-svg .edge-pattern-dashed{stroke-dasharray:3;}#my-svg .edge-pattern-dotted{stroke-dasharray:2;}#my-svg .marker{fill:#333333;stroke:#333333;}#my-svg .marker.cross{stroke:#333333;}#my-svg svg{font-family:"trebuchet ms",verdana,arial,sans-serif;font-size:16px;}#my-svg p{margin:0;}#my-svg .label{font-family:"trebuchet ms",verdana,arial,sans-serif;color:#333;}#my-svg .cluster-label text{fill:#333;}#my-svg .cluster-label span{color:#333;}#my-svg .cluster-label span p{background-color:transparent;}#my-svg .label text,#my-svg span{fill:#333;color:#333;}#my-svg .node rect,#my-svg .node circle,#my-svg .node ellipse,#my-svg .node polygon,#my-svg .node path{fill:#ECECFF;stroke:#9370DB;stroke-width:1px;}#my-svg .rough-node .label text,#my-svg .node .label text,#my-svg .image-shape .label,#my-svg .icon-shape .label{text-anchor:middle;}#my-svg .node .katex path{fill:#000;stroke:#000;stroke-width:1px;}#my-svg .rough-node .label,#my-svg .node .label,#my-svg .image-shape .label,#my-svg .icon-shape .label{text-align:center;}#my-svg .node.clickable{cursor:pointer;}#my-svg .root .anchor path{fill:#333333!important;stroke-width:0;stroke:#333333;}#my-svg .arrowheadPath{fill:#333333;}#my-svg .edgePath .path{stroke:#333333;stroke-width:2.0px;}#my-svg .flowchart-link{stroke:#333333;fill:none;}#my-svg .edgeLabel{background-color:rgba(232,232,232, 0.8);text-align:center;}#my-svg .edgeLabel p{background-color:rgba(232,232,232, 0.8);}#my-svg .edgeLabel rect{opacity:0.5;background-color:rgba(232,232,232, 0.8);fill:rgba(232,232,232, 0.8);}#my-svg .labelBkg{background-color:rgba(232, 232, 232, 0.5);}#my-svg .cluster rect{fill:#ffffde;stroke:#aaaa33;stroke-width:1px;}#my-svg .cluster text{fill:#333;}#my-svg .cluster span{color:#333;}#my-svg div.mermaidTooltip{position:absolute;text-align:center;max-width:200px;padding:2px;font-family:"trebuchet ms",verdana,arial,sans-serif;font-size:12px;background:hsl(80, 100%, 96.2745098039%);border:1px solid #aaaa33;border-radius:2px;pointer-events:none;z-index:100;}#my-svg .flowchartTitleText{text-anchor:middle;font-size:18px;fill:#333;}#my-svg rect.text{fill:none;stroke-width:0;}#my-svg .icon-shape,#my-svg .image-shape{background-color:rgba(232,232,232, 0.8);text-align:center;}#my-svg .icon-shape p,#my-svg .image-shape p{background-color:rgba(232,232,232, 0.8);padding:2px;}#my-svg .icon-shape .label rect,#my-svg .image-shape .label rect{opacity:0.5;background-color:rgba(232,232,232, 0.8);fill:rgba(232,232,232, 0.8);}#my-svg .label-icon{display:inline-block;height:1em;overflow:visible;vertical-align:-0.125em;}#my-svg .node .label-icon path{fill:currentColor;stroke:revert;stroke-width:revert;}#my-svg :root{--mermaid-font-family:"trebuchet ms",verdana,arial,sans-serif;}</style><g><marker id="my-svg_flowchart-v2-pointEnd" class="marker flowchart-v2" viewBox="0 0 10 10" refX="5" refY="5" markerUnits="userSpaceOnUse" markerWidth="8" markerHeight="8" orient="auto"><path d="M 0 0 L 10 5 L 0 10 z" class="arrowMarkerPath" style="stroke-width: 1; stroke-dasharray: 1, 0;"/></marker><marker id="my-svg_flowchart-v2-pointStart" class="marker flowchart-v2" viewBox="0 0 10 10" refX="4.5" refY="5" markerUnits="userSpaceOnUse" markerWidth="8" markerHeight="8" orient="auto"><path d="M 0 5 L 10 10 L 10 0 z" class="arrowMarkerPath" style="stroke-width: 1; stroke-dasharray: 1, 0;"/></marker><marker id="my-svg_flowchart-v2-circleEnd" class="marker flowchart-v2" viewBox="0 0 10 10" refX="11" refY="5" markerUnits="userSpaceOnUse" markerWidth="11" markerHeight="11" orient="auto"><circle cx="5" cy="5" r="5" class="arrowMarkerPath" style="stroke-width: 1; stroke-dasharray: 1, 0;"/></marker><marker id="my-svg_flowchart-v2-circleStart" class="marker flowchart-v2" viewBox="0 0 10 10" refX="-1" refY="5" markerUnits="userSpaceOnUse" markerWidth="11" markerHeight="11" orient="auto"><circle cx="5" cy="5" r="5" class="arrowMarkerPath" style="stroke-width: 1; stroke-dasharray: 1, 0;"/></marker><marker id="my-svg_flowchart-v2-crossEnd" class="marker cross flowchart-v2" viewBox="0 0 11 11" refX="12" refY="5.2" markerUnits="userSpaceOnUse" markerWidth="11" markerHeight="11" orient="auto"><path d="M 1,1 l 9,9 M 10,1 l -9,9" class="arrowMarkerPath" style="stroke-width: 2; stroke-dasharray: 1, 0;"/></marker><marker id="my-svg_flowchart-v2-crossStart" class="marker cross flowchart-v2" viewBox="0 0 11 11" refX="-1" refY="5.2" markerUnits="userSpaceOnUse" markerWidth="11" markerHeight="11" orient="auto"><path d="M 1,1 l 9,9 M 10,1 l -9,9" class="arrowMarkerPath" style="stroke-width: 2; stroke-dasharray: 1, 0;"/></marker><g class="root"><g class="clusters"><g class="cluster" id="Frontends" data-look="classic"><rect style="" x="993.203125" y="244" width="242.09375" height="228"/><g class="cluster-label" transform="translate(1078.671875, 244)"><foreignObject width="71.15625" height="24"><div xmlns="http://www.w3.org/1999/xhtml" style="display: table-cell; white-space: nowrap; line-height: 1.5;"><span class="nodeLabel"><p>Frontends</p></span></div></foreignObject></g></g><g class="cluster" id="Services" data-look="classic"><rect style="" x="187.171875" y="8" width="756.03125" height="510.3035650253296"/><g class="cluster-label" transform="translate(536.1015625, 8)"><foreignObject width="58.171875" height="24"><div xmlns="http://www.w3.org/1999/xhtml" style="display: table-cell; white-space: nowrap; line-height: 1.5;"><span class="nodeLabel"><p>Services</p></span></div></foreignObject></g></g><g class="cluster" id="Infrastructure" data-look="classic"><rect style="" x="8" y="8" width="129.171875" height="452.8242654800415"/><g class="cluster-label" transform="translate(22.8515625, 8)"><foreignObject width="99.46875" height="24"><div xmlns="http://www.w3.org/1999/xhtml" style="display: table-cell; white-space: nowrap; line-height: 1.5;"><span class="nodeLabel"><p>Infrastructure</p></span></div></foreignObject></g></g></g><g class="edgePaths"><path d="M88.644,250.598L96.732,267.882C104.82,285.166,120.996,319.735,133.251,337.019C145.505,354.304,153.839,354.304,162.172,354.304C170.505,354.304,178.839,354.304,186.505,354.304C194.172,354.304,201.172,354.304,204.672,354.304L208.172,354.304" id="L_MONGO_PDF_0" class="edge-thickness-normal edge-pattern-solid edge-thickness-normal edge-pattern-solid flowchart-link" style=";" data-edge="true" data-et="edge" data-id="L_MONGO_PDF_0" data-points="W3sieCI6ODguNjQ0MjEyNjk1NTEyNzYsInkiOjI1MC41OTc5Mzg2MDk4MTA5fSx7IngiOjEzNy4xNzE4NzUsInkiOjM1NC4zMDM1NjUwMjUzMjk2fSx7IngiOjE2Mi4xNzE4NzUsInkiOjM1NC4zMDM1NjUwMjUzMjk2fSx7IngiOjE4Ny4xNzE4NzUsInkiOjM1NC4zMDM1NjUwMjUzMjk2fSx7IngiOjIxMi4xNzE4NzUsInkiOjM1NC4zMDM1NjUwMjUzMjk2fV0=" marker-end="url(#my-svg_flowchart-v2-pointEnd)"/><path d="M112.172,240.127L116.339,245.157C120.505,250.186,128.839,260.245,137.172,265.274C145.505,270.304,153.839,270.304,162.172,270.304C170.505,270.304,178.839,270.304,200.499,270.304C222.159,270.304,257.146,270.304,292.133,270.304C327.12,270.304,362.107,270.304,383.123,271.246C404.139,272.188,411.184,274.073,414.707,275.015L418.23,275.957" id="L_MONGO_EMAIL_0" class="edge-thickness-normal edge-pattern-solid edge-thickness-normal edge-pattern-solid flowchart-link" style=";" data-edge="true" data-et="edge" data-id="L_MONGO_EMAIL_0" data-points="W3sieCI6MTEyLjE3MTg3NSwieSI6MjQwLjEyNzQ1MDQ4ODM5ODkyfSx7IngiOjEzNy4xNzE4NzUsInkiOjI3MC4zMDM1NjUwMjUzMjk2fSx7IngiOjE2Mi4xNzE4NzUsInkiOjI3MC4zMDM1NjUwMjUzMjk2fSx7IngiOjE4Ny4xNzE4NzUsInkiOjI3MC4zMDM1NjUwMjUzMjk2fSx7IngiOjI5Mi4xMzI4MTI1LCJ5IjoyNzAuMzAzNTY1MDI1MzI5Nn0seyJ4IjozOTcuMDkzNzUsInkiOjI3MC4zMDM1NjUwMjUzMjk2fSx7IngiOjQyMi4wOTM3NSwieSI6Mjc2Ljk5MTEzMDMzMzU4NDZ9XQ==" marker-end="url(#my-svg_flowchart-v2-pointEnd)"/><path d="M361.253,327.304L367.227,324.97C373.2,322.637,385.147,317.97,394.641,314.738C404.135,311.506,411.177,309.708,414.697,308.809L418.218,307.91" id="L_PDF_EMAIL_0" class="edge-thickness-normal edge-pattern-solid edge-thickness-normal edge-pattern-solid flowchart-link" style=";" data-edge="true" data-et="edge" data-id="L_PDF_EMAIL_0" data-points="W3sieCI6MzYxLjI1MzQyOTg3ODA0ODgsInkiOjMyNy4zMDM1NjUwMjUzMjk2fSx7IngiOjM5Ny4wOTM3NSwieSI6MzEzLjMwMzU2NTAyNTMyOTZ9LHsieCI6NDIyLjA5Mzc1LCJ5IjozMDYuOTE5OTc5OTU4MzU4OTd9XQ==" marker-end="url(#my-svg_flowchart-v2-pointEnd)"/><path d="M86.467,183.964L94.918,163.137C103.369,142.309,120.27,100.655,132.888,79.827C145.505,59,153.839,59,162.172,59C170.505,59,178.839,59,200.499,59C222.159,59,257.146,59,292.133,59C327.12,59,362.107,59,393.307,59C424.508,59,451.922,59,479.336,59C506.75,59,534.164,59,557.136,64.493C580.107,69.987,598.636,80.973,607.9,86.467L617.165,91.96" id="L_MONGO_AUTH_0" class="edge-thickness-normal edge-pattern-solid edge-thickness-normal edge-pattern-solid flowchart-link" style=";" data-edge="true" data-et="edge" data-id="L_MONGO_AUTH_0" data-points="W3sieCI6ODYuNDY2ODM4MjI3MzgxODYsInkiOjE4My45NjQxMjQzMzc4OTN9LHsieCI6MTM3LjE3MTg3NSwieSI6NTl9LHsieCI6MTYyLjE3MTg3NSwieSI6NTl9LHsieCI6MTg3LjE3MTg3NSwieSI6NTl9LHsieCI6MjkyLjEzMjgxMjUsInkiOjU5fSx7IngiOjM5Ny4wOTM3NSwieSI6NTl9LHsieCI6NDc5LjMzNTkzNzUsInkiOjU5fSx7IngiOjU2MS41NzgxMjUsInkiOjU5fSx7IngiOjYyMC42MDUzNDI3NDE5MzU1LCJ5Ijo5NH1d" marker-end="url(#my-svg_flowchart-v2-pointEnd)"/><path d="M95.403,129.584L102.364,139.538C109.326,149.491,123.249,169.397,134.377,179.35C145.505,189.304,153.839,189.304,162.172,189.304C170.505,189.304,178.839,189.304,200.499,189.304C222.159,189.304,257.146,189.304,292.133,189.304C327.12,189.304,362.107,189.304,393.307,189.304C424.508,189.304,451.922,189.304,479.336,189.304C506.75,189.304,534.164,189.304,557.851,182.784C581.538,176.265,601.499,163.226,611.479,156.707L621.459,150.188" id="L_REDIS_AUTH_0" class="edge-thickness-normal edge-pattern-solid edge-thickness-normal edge-pattern-solid flowchart-link" style=";" data-edge="true" data-et="edge" data-id="L_REDIS_AUTH_0" data-points="W3sieCI6OTUuNDAyNjMwNjMzMzUxMTIsInkiOjEyOS41ODQzMzMwODA2NjI3fSx7IngiOjEzNy4xNzE4NzUsInkiOjE4OS4zMDM1NjUwMjUzMjk2fSx7IngiOjE2Mi4xNzE4NzUsInkiOjE4OS4zMDM1NjUwMjUzMjk2fSx7IngiOjE4Ny4xNzE4NzUsInkiOjE4OS4zMDM1NjUwMjUzMjk2fSx7IngiOjI5Mi4xMzI4MTI1LCJ5IjoxODkuMzAzNTY1MDI1MzI5Nn0seyJ4IjozOTcuMDkzNzUsInkiOjE4OS4zMDM1NjUwMjUzMjk2fSx7IngiOjQ3OS4zMzU5Mzc1LCJ5IjoxODkuMzAzNTY1MDI1MzI5Nn0seyJ4Ijo1NjEuNTc4MTI1LCJ5IjoxODkuMzAzNTY1MDI1MzI5Nn0seyJ4Ijo2MjQuODA3Njc5OTQ4Njk3NywieSI6MTQ4fV0=" marker-end="url(#my-svg_flowchart-v2-pointEnd)"/><path d="M506.089,265.304L515.338,255.97C524.586,246.637,543.082,227.97,563.919,208.85C584.756,189.729,607.935,170.155,619.524,160.368L631.113,150.581" id="L_EMAIL_AUTH_0" class="edge-thickness-normal edge-pattern-solid edge-thickness-normal edge-pattern-solid flowchart-link" style=";" data-edge="true" data-et="edge" data-id="L_EMAIL_AUTH_0" data-points="W3sieCI6NTA2LjA4OTQyMDE4MDcyMjg3LCJ5IjoyNjUuMzAzNTY1MDI1MzI5Nn0seyJ4Ijo1NjEuNTc4MTI1LCJ5IjoyMDkuMzAzNTY1MDI1MzI5Nn0seyJ4Ijo2MzQuMTY5MjM3NDQ0MDE0MiwieSI6MTQ4fV0=" marker-end="url(#my-svg_flowchart-v2-pointEnd)"/><path d="M112.172,224.692L116.339,225.461C120.505,226.229,128.839,227.766,137.172,228.535C145.505,229.304,153.839,229.304,162.172,229.304C170.505,229.304,178.839,229.304,200.499,229.304C222.159,229.304,257.146,229.304,292.133,229.304C327.12,229.304,362.107,229.304,393.307,229.304C424.508,229.304,451.922,229.304,479.336,229.304C506.75,229.304,534.164,229.304,557.76,232.33C581.355,235.356,601.132,241.409,611.021,244.435L620.909,247.461" id="L_MONGO_API_0" class="edge-thickness-normal edge-pattern-solid edge-thickness-normal edge-pattern-solid flowchart-link" style=";" data-edge="true" data-et="edge" data-id="L_MONGO_API_0" data-points="W3sieCI6MTEyLjE3MTg3NSwieSI6MjI0LjY5MjA0NjMwMTEyODd9LHsieCI6MTM3LjE3MTg3NSwieSI6MjI5LjMwMzU2NTAyNTMyOTZ9LHsieCI6MTYyLjE3MTg3NSwieSI6MjI5LjMwMzU2NTAyNTMyOTZ9LHsieCI6MTg3LjE3MTg3NSwieSI6MjI5LjMwMzU2NTAyNTMyOTZ9LHsieCI6MjkyLjEzMjgxMjUsInkiOjIyOS4zMDM1NjUwMjUzMjk2fSx7IngiOjM5Ny4wOTM3NSwieSI6MjI5LjMwMzU2NTAyNTMyOTZ9LHsieCI6NDc5LjMzNTkzNzUsInkiOjIyOS4zMDM1NjUwMjUzMjk2fSx7IngiOjU2MS41NzgxMjUsInkiOjIyOS4zMDM1NjUwMjUzMjk2fSx7IngiOjYyNC43MzQzNzUsInkiOjI0OC42MzE3MTgwNDM4NTkxN31d" marker-end="url(#my-svg_flowchart-v2-pointEnd)"/><path d="M536.578,292.304L540.745,292.304C544.911,292.304,553.245,292.304,567.298,289.372C581.352,286.441,601.126,280.579,611.012,277.648L620.899,274.716" id="L_EMAIL_API_0" class="edge-thickness-normal edge-pattern-solid edge-thickness-normal edge-pattern-solid flowchart-link" style=";" data-edge="true" data-et="edge" data-id="L_EMAIL_API_0" data-points="W3sieCI6NTM2LjU3ODEyNSwieSI6MjkyLjMwMzU2NTAyNTMyOTZ9LHsieCI6NTYxLjU3ODEyNSwieSI6MjkyLjMwMzU2NTAyNTMyOTZ9LHsieCI6NjI0LjczNDM3NSwieSI6MjczLjU3OTQxNjc4ODYyOTAzfV0=" marker-end="url(#my-svg_flowchart-v2-pointEnd)"/><path d="M372.094,354.304L376.26,354.304C380.427,354.304,388.76,354.304,406.634,354.304C424.508,354.304,451.922,354.304,479.336,354.304C506.75,354.304,534.164,354.304,559.741,343.747C585.317,333.19,609.056,312.076,620.925,301.519L632.795,290.962" id="L_PDF_API_0" class="edge-thickness-normal edge-pattern-solid edge-thickness-normal edge-pattern-solid flowchart-link" style=";" data-edge="true" data-et="edge" data-id="L_PDF_API_0" data-points="W3sieCI6MzcyLjA5Mzc1LCJ5IjozNTQuMzAzNTY1MDI1MzI5Nn0seyJ4IjozOTcuMDkzNzUsInkiOjM1NC4zMDM1NjUwMjUzMjk2fSx7IngiOjQ3OS4zMzU5Mzc1LCJ5IjozNTQuMzAzNTY1MDI1MzI5Nn0seyJ4Ijo1NjEuNTc4MTI1LCJ5IjozNTQuMzAzNTY1MDI1MzI5Nn0seyJ4Ijo2MzUuNzgzNzcwMTYxMjkwNCwieSI6Mjg4LjMwMzU2NTAyNTMyOTZ9XQ==" marker-end="url(#my-svg_flowchart-v2-pointEnd)"/><path d="M83.639,251.046L92.561,278.589C101.483,306.132,119.328,361.218,132.416,388.761C145.505,416.304,153.839,416.304,162.172,416.304C170.505,416.304,178.839,416.304,200.499,416.304C222.159,416.304,257.146,416.304,292.133,416.304C327.12,416.304,362.107,416.304,393.307,416.304C424.508,416.304,451.922,416.304,479.336,416.304C506.75,416.304,534.164,416.304,553.708,416.304C573.253,416.304,584.927,416.304,590.764,416.304L596.602,416.304" id="L_MONGO_TAPI_0" class="edge-thickness-normal edge-pattern-solid edge-thickness-normal edge-pattern-solid flowchart-link" style=";" data-edge="true" data-et="edge" data-id="L_MONGO_TAPI_0" data-points="W3sieCI6ODMuNjM4OTU4MTAxMjcxNjQsInkiOjI1MS4wNDU4Mzg2NjQ0MDI5Nn0seyJ4IjoxMzcuMTcxODc1LCJ5Ijo0MTYuMzAzNTY1MDI1MzI5Nn0seyJ4IjoxNjIuMTcxODc1LCJ5Ijo0MTYuMzAzNTY1MDI1MzI5Nn0seyJ4IjoxODcuMTcxODc1LCJ5Ijo0MTYuMzAzNTY1MDI1MzI5Nn0seyJ4IjoyOTIuMTMyODEyNSwieSI6NDE2LjMwMzU2NTAyNTMyOTZ9LHsieCI6Mzk3LjA5Mzc1LCJ5Ijo0MTYuMzAzNTY1MDI1MzI5Nn0seyJ4Ijo0NzkuMzM1OTM3NSwieSI6NDE2LjMwMzU2NTAyNTMyOTZ9LHsieCI6NTYxLjU3ODEyNSwieSI6NDE2LjMwMzU2NTAyNTMyOTZ9LHsieCI6NjAwLjYwMTU2MjUsInkiOjQxNi4zMDM1NjUwMjUzMjk2fV0=" marker-end="url(#my-svg_flowchart-v2-pointEnd)"/><path d="M98.758,101.655L105.16,101.379C111.563,101.103,124.367,100.552,134.936,100.276C145.505,100,153.839,100,162.172,100C170.505,100,178.839,100,187.293,100.858C195.747,101.716,204.323,103.431,208.61,104.289L212.898,105.147" id="L_REDIS_RESET_0" class="edge-thickness-normal edge-pattern-solid edge-thickness-normal edge-pattern-solid flowchart-link" style=";" data-edge="true" data-et="edge" data-id="L_REDIS_RESET_0" data-points="W3sieCI6OTguNzU3ODEyNSwieSI6MTAxLjY1NTE3NjYxNzExOTUyfSx7IngiOjEzNy4xNzE4NzUsInkiOjEwMH0seyJ4IjoxNjIuMTcxODc1LCJ5IjoxMDB9LHsieCI6MTg3LjE3MTg3NSwieSI6MTAwfSx7IngiOjIxNi44MjAzMTI1LCJ5IjoxMDUuOTMxODk0MzA1OTE3Mzh9XQ==" marker-end="url(#my-svg_flowchart-v2-pointEnd)"/><path d="M104.41,187.277L109.87,180.782C115.33,174.286,126.251,161.295,135.878,154.799C145.505,148.304,153.839,148.304,162.172,148.304C170.505,148.304,178.839,148.304,187.301,147.186C195.764,146.068,204.357,143.833,208.653,142.716L212.949,141.598" id="L_MONGO_RESET_0" class="edge-thickness-normal edge-pattern-solid edge-thickness-normal edge-pattern-solid flowchart-link" style=";" data-edge="true" data-et="edge" data-id="L_MONGO_RESET_0" data-points="W3sieCI6MTA0LjQwOTc4MTk4NTkxNDI2LCJ5IjoxODcuMjc3MjkwMjE3MjY1OTF9LHsieCI6MTM3LjE3MTg3NSwieSI6MTQ4LjMwMzU2NTAyNTMyOTZ9LHsieCI6MTYyLjE3MTg3NSwieSI6MTQ4LjMwMzU2NTAyNTMyOTZ9LHsieCI6MTg3LjE3MTg3NSwieSI6MTQ4LjMwMzU2NTAyNTMyOTZ9LHsieCI6MjE2LjgyMDMxMjUsInkiOjE0MC41OTEwOTU0MTA4MDU5fV0=" marker-end="url(#my-svg_flowchart-v2-pointEnd)"/><path d="M745.703,121L749.87,121C754.036,121,762.37,121,779.378,164.028C796.386,207.056,822.069,293.111,834.91,336.139L847.751,379.167" id="L_AUTH_GW_0" class="edge-thickness-normal edge-pattern-solid edge-thickness-normal edge-pattern-solid flowchart-link" style=";" data-edge="true" data-et="edge" data-id="L_AUTH_GW_0" data-points="W3sieCI6NzQ1LjcwMzEyNSwieSI6MTIxfSx7IngiOjc3MC43MDMxMjUsInkiOjEyMX0seyJ4Ijo4NDguODk1MTY2NTIyNDkxMywieSI6MzgzfV0=" marker-end="url(#my-svg_flowchart-v2-pointEnd)"/><path d="M707.547,261.304L718.073,261.304C728.599,261.304,749.651,261.304,771.607,281.01C793.564,300.716,816.424,340.128,827.855,359.834L839.285,379.54" id="L_API_GW_0" class="edge-thickness-normal edge-pattern-solid edge-thickness-normal edge-pattern-solid flowchart-link" style=";" data-edge="true" data-et="edge" data-id="L_API_GW_0" data-points="W3sieCI6NzA3LjU0Njg3NSwieSI6MjYxLjMwMzU2NTAyNTMyOTZ9LHsieCI6NzcwLjcwMzEyNSwieSI6MjYxLjMwMzU2NTAyNTMyOTZ9LHsieCI6ODQxLjI5MjAyMzIzNjU1MzYsInkiOjM4M31d" marker-end="url(#my-svg_flowchart-v2-pointEnd)"/><path d="M731.68,416.304L738.184,416.304C744.688,416.304,757.695,416.304,767.701,416.048C777.707,415.792,784.71,415.28,788.212,415.024L791.714,414.768" id="L_TAPI_GW_0" class="edge-thickness-normal edge-pattern-solid edge-thickness-normal edge-pattern-solid flowchart-link" style=";" data-edge="true" data-et="edge" data-id="L_TAPI_GW_0" data-points="W3sieCI6NzMxLjY3OTY4NzUsInkiOjQxNi4zMDM1NjUwMjUzMjk2fSx7IngiOjc3MC43MDMxMjUsInkiOjQxNi4zMDM1NjUwMjUzMjk2fSx7IngiOjc5NS43MDMxMjUsInkiOjQxNC40NzY0NDQ3MjgxMzI2fV0=" marker-end="url(#my-svg_flowchart-v2-pointEnd)"/><path d="M314.987,381.304L328.672,397.47C342.356,413.637,369.725,445.97,397.116,462.137C424.508,478.304,451.922,478.304,479.336,478.304C506.75,478.304,534.164,478.304,565.298,478.304C596.432,478.304,631.286,478.304,666.141,478.304C700.995,478.304,735.849,478.304,761.446,471.834C787.043,465.363,803.383,452.423,811.553,445.953L819.723,439.483" id="L_PDF_GW_0" class="edge-thickness-normal edge-pattern-solid edge-thickness-normal edge-pattern-solid flowchart-link" style=";" data-edge="true" data-et="edge" data-id="L_PDF_GW_0" data-points="W3sieCI6MzE0Ljk4NzIxMDE4MTQ1MTYsInkiOjM4MS4zMDM1NjUwMjUzMjk2fSx7IngiOjM5Ny4wOTM3NSwieSI6NDc4LjMwMzU2NTAyNTMyOTZ9LHsieCI6NDc5LjMzNTkzNzUsInkiOjQ3OC4zMDM1NjUwMjUzMjk2fSx7IngiOjU2MS41NzgxMjUsInkiOjQ3OC4zMDM1NjUwMjUzMjk2fSx7IngiOjY2Ni4xNDA2MjUsInkiOjQ3OC4zMDM1NjUwMjUzMjk2fSx7IngiOjc3MC43MDMxMjUsInkiOjQ3OC4zMDM1NjUwMjUzMjk2fSx7IngiOjgyMi44NTkwMDQxNTY3MjYyLCJ5Ijo0Mzd9XQ==" marker-end="url(#my-svg_flowchart-v2-pointEnd)"/><path d="M490.115,319.304L502.026,349.137C513.936,378.97,537.757,438.637,567.095,468.47C596.432,498.304,631.286,498.304,666.141,498.304C700.995,498.304,735.849,498.304,762.79,488.563C789.731,478.823,808.758,459.342,818.272,449.602L827.786,439.862" id="L_EMAIL_GW_0" class="edge-thickness-normal edge-pattern-solid edge-thickness-normal edge-pattern-solid flowchart-link" style=";" data-edge="true" data-et="edge" data-id="L_EMAIL_GW_0" data-points="W3sieCI6NDkwLjExNTI1MzMzNzM3ODY1LCJ5IjozMTkuMzAzNTY1MDI1MzI5Nn0seyJ4Ijo1NjEuNTc4MTI1LCJ5Ijo0OTguMzAzNTY1MDI1MzI5Nn0seyJ4Ijo2NjYuMTQwNjI1LCJ5Ijo0OTguMzAzNTY1MDI1MzI5Nn0seyJ4Ijo3NzAuNzAzMTI1LCJ5Ijo0OTguMzAzNTY1MDI1MzI5Nn0seyJ4Ijo4MzAuNTgxMDMwMDY0Mzk5MSwieSI6NDM3fV0=" marker-end="url(#my-svg_flowchart-v2-pointEnd)"/><path d="M879.345,383L889.988,370.167C900.631,357.333,921.917,331.667,936.727,318.833C951.536,306,959.87,306,968.203,306C976.536,306,984.87,306,992.536,306C1000.203,306,1007.203,306,1010.703,306L1014.203,306" id="L_GW_LF_0" class="edge-thickness-normal edge-pattern-solid edge-thickness-normal edge-pattern-solid flowchart-link" style=";" data-edge="true" data-et="edge" data-id="L_GW_LF_0" data-points="W3sieCI6ODc5LjM0NDk1MTkyMzA3NjksInkiOjM4M30seyJ4Ijo5NDMuMjAzMTI1LCJ5IjozMDZ9LHsieCI6OTY4LjIwMzEyNSwieSI6MzA2fSx7IngiOjk5My4yMDMxMjUsInkiOjMwNn0seyJ4IjoxMDE4LjIwMzEyNSwieSI6MzA2fV0=" marker-end="url(#my-svg_flowchart-v2-pointEnd)"/><path d="M918.203,410L922.37,410C926.536,410,934.87,410,943.203,410C951.536,410,959.87,410,968.203,410C976.536,410,984.87,410,993.732,410C1002.594,410,1011.984,410,1016.68,410L1021.375,410" id="L_GW_TF_0" class="edge-thickness-normal edge-pattern-solid edge-thickness-normal edge-pattern-solid flowchart-link" style=";" data-edge="true" data-et="edge" data-id="L_GW_TF_0" data-points="W3sieCI6OTE4LjIwMzEyNSwieSI6NDEwfSx7IngiOjk0My4yMDMxMjUsInkiOjQxMH0seyJ4Ijo5NjguMjAzMTI1LCJ5Ijo0MTB9LHsieCI6OTkzLjIwMzEyNSwieSI6NDEwfSx7IngiOjEwMjUuMzc1LCJ5Ijo0MTB9XQ==" marker-end="url(#my-svg_flowchart-v2-pointEnd)"/></g><g class="edgeLabels"><g class="edgeLabel"><g class="label" data-id="L_MONGO_PDF_0" transform="translate(0, 0)"><foreignObject width="0" height="0"><div xmlns="http://www.w3.org/1999/xhtml" class="labelBkg" style="display: table-cell; white-space: nowrap; line-height: 1.5; max-width: 200px; text-align: center;"><span class="edgeLabel"></span></div></foreignObject></g></g><g class="edgeLabel"><g class="label" data-id="L_MONGO_EMAIL_0" transform="translate(0, 0)"><foreignObject width="0" height="0"><div xmlns="http://www.w3.org/1999/xhtml" class="labelBkg" style="display: table-cell; white-space: nowrap; line-height: 1.5; max-width: 200px; text-align: center;"><span class="edgeLabel"></span></div></foreignObject></g></g><g class="edgeLabel"><g class="label" data-id="L_PDF_EMAIL_0" transform="translate(0, 0)"><foreignObject width="0" height="0"><div xmlns="http://www.w3.org/1999/xhtml" class="labelBkg" style="display: table-cell; white-space: nowrap; line-height: 1.5; max-width: 200px; text-align: center;"><span class="edgeLabel"></span></div></foreignObject></g></g><g class="edgeLabel"><g class="label" data-id="L_MONGO_AUTH_0" transform="translate(0, 0)"><foreignObject width="0" height="0"><div xmlns="http://www.w3.org/1999/xhtml" class="labelBkg" style="display: table-cell; white-space: nowrap; line-height: 1.5; max-width: 200px; text-align: center;"><span class="edgeLabel"></span></div></foreignObject></g></g><g class="edgeLabel"><g class="label" data-id="L_REDIS_AUTH_0" transform="translate(0, 0)"><foreignObject width="0" height="0"><div xmlns="http://www.w3.org/1999/xhtml" class="labelBkg" style="display: table-cell; white-space: nowrap; line-height: 1.5; max-width: 200px; text-align: center;"><span class="edgeLabel"></span></div></foreignObject></g></g><g class="edgeLabel"><g class="label" data-id="L_EMAIL_AUTH_0" transform="translate(0, 0)"><foreignObject width="0" height="0"><div xmlns="http://www.w3.org/1999/xhtml" class="labelBkg" style="display: table-cell; white-space: nowrap; line-height: 1.5; max-width: 200px; text-align: center;"><span class="edgeLabel"></span></div></foreignObject></g></g><g class="edgeLabel"><g class="label" data-id="L_MONGO_API_0" transform="translate(0, 0)"><foreignObject width="0" height="0"><div xmlns="http://www.w3.org/1999/xhtml" class="labelBkg" style="display: table-cell; white-space: nowrap; line-height: 1.5; max-width: 200px; text-align: center;"><span class="edgeLabel"></span></div></foreignObject></g></g><g class="edgeLabel"><g class="label" data-id="L_EMAIL_API_0" transform="translate(0, 0)"><foreignObject width="0" height="0"><div xmlns="http://www.w3.org/1999/xhtml" class="labelBkg" style="display: table-cell; white-space: nowrap; line-height: 1.5; max-width: 200px; text-align: center;"><span class="edgeLabel"></span></div></foreignObject></g></g><g class="edgeLabel"><g class="label" data-id="L_PDF_API_0" transform="translate(0, 0)"><foreignObject width="0" height="0"><div xmlns="http://www.w3.org/1999/xhtml" class="labelBkg" style="display: table-cell; white-space: nowrap; line-height: 1.5; max-width: 200px; text-align: center;"><span class="edgeLabel"></span></div></foreignObject></g></g><g class="edgeLabel"><g class="label" data-id="L_MONGO_TAPI_0" transform="translate(0, 0)"><foreignObject width="0" height="0"><div xmlns="http://www.w3.org/1999/xhtml" class="labelBkg" style="display: table-cell; white-space: nowrap; line-height: 1.5; max-width: 200px; text-align: center;"><span class="edgeLabel"></span></div></foreignObject></g></g><g class="edgeLabel"><g class="label" data-id="L_REDIS_RESET_0" transform="translate(0, 0)"><foreignObject width="0" height="0"><div xmlns="http://www.w3.org/1999/xhtml" class="labelBkg" style="display: table-cell; white-space: nowrap; line-height: 1.5; max-width: 200px; text-align: center;"><span class="edgeLabel"></span></div></foreignObject></g></g><g class="edgeLabel"><g class="label" data-id="L_MONGO_RESET_0" transform="translate(0, 0)"><foreignObject width="0" height="0"><div xmlns="http://www.w3.org/1999/xhtml" class="labelBkg" style="display: table-cell; white-space: nowrap; line-height: 1.5; max-width: 200px; text-align: center;"><span class="edgeLabel"></span></div></foreignObject></g></g><g class="edgeLabel"><g class="label" data-id="L_AUTH_GW_0" transform="translate(0, 0)"><foreignObject width="0" height="0"><div xmlns="http://www.w3.org/1999/xhtml" class="labelBkg" style="display: table-cell; white-space: nowrap; line-height: 1.5; max-width: 200px; text-align: center;"><span class="edgeLabel"></span></div></foreignObject></g></g><g class="edgeLabel"><g class="label" data-id="L_API_GW_0" transform="translate(0, 0)"><foreignObject width="0" height="0"><div xmlns="http://www.w3.org/1999/xhtml" class="labelBkg" style="display: table-cell; white-space: nowrap; line-height: 1.5; max-width: 200px; text-align: center;"><span class="edgeLabel"></span></div></foreignObject></g></g><g class="edgeLabel"><g class="label" data-id="L_TAPI_GW_0" transform="translate(0, 0)"><foreignObject width="0" height="0"><div xmlns="http://www.w3.org/1999/xhtml" class="labelBkg" style="display: table-cell; white-space: nowrap; line-height: 1.5; max-width: 200px; text-align: center;"><span class="edgeLabel"></span></div></foreignObject></g></g><g class="edgeLabel"><g class="label" data-id="L_PDF_GW_0" transform="translate(0, 0)"><foreignObject width="0" height="0"><div xmlns="http://www.w3.org/1999/xhtml" class="labelBkg" style="display: table-cell; white-space: nowrap; line-height: 1.5; max-width: 200px; text-align: center;"><span class="edgeLabel"></span></div></foreignObject></g></g><g class="edgeLabel"><g class="label" data-id="L_EMAIL_GW_0" transform="translate(0, 0)"><foreignObject width="0" height="0"><div xmlns="http://www.w3.org/1999/xhtml" class="labelBkg" style="display: table-cell; white-space: nowrap; line-height: 1.5; max-width: 200px; text-align: center;"><span class="edgeLabel"></span></div></foreignObject></g></g><g class="edgeLabel"><g class="label" data-id="L_GW_LF_0" transform="translate(0, 0)"><foreignObject width="0" height="0"><div xmlns="http://www.w3.org/1999/xhtml" class="labelBkg" style="display: table-cell; white-space: nowrap; line-height: 1.5; max-width: 200px; text-align: center;"><span class="edgeLabel"></span></div></foreignObject></g></g><g class="edgeLabel"><g class="label" data-id="L_GW_TF_0" transform="translate(0, 0)"><foreignObject width="0" height="0"><div xmlns="http://www.w3.org/1999/xhtml" class="labelBkg" style="display: table-cell; white-space: nowrap; line-height: 1.5; max-width: 200px; text-align: center;"><span class="edgeLabel"></span></div></foreignObject></g></g></g><g class="nodes"><g class="node default" id="flowchart-MONGO-0" transform="translate(72.5859375, 217.38999462127686)"><path d="M0,9.69426800336726 a39.5859375,9.69426800336726 0,0,0 79.171875,0 a39.5859375,9.69426800336726 0,0,0 -79.171875,0 l0,48.694268003367256 a39.5859375,9.69426800336726 0,0,0 79.171875,0 l0,-48.694268003367256" class="basic label-container" style="" transform="translate(-39.5859375, -34.041402005050884)"/><g class="label" style="" transform="translate(-32.0859375, -2)"><rect/><foreignObject width="64.171875" height="24"><div xmlns="http://www.w3.org/1999/xhtml" style="display: table-cell; white-space: nowrap; line-height: 1.5; max-width: 200px; text-align: center;"><span class="nodeLabel"><p>MongoDB</p></span></div></foreignObject></g></g><g class="node default" id="flowchart-REDIS-1" transform="translate(72.5859375, 102.78286457061768)"><path d="M0,7.378854625550661 a26.171875,7.378854625550661 0,0,0 52.34375,0 a26.171875,7.378854625550661 0,0,0 -52.34375,0 l0,46.37885462555066 a26.171875,7.378854625550661 0,0,0 52.34375,0 l0,-46.37885462555066" class="basic label-container" style="" transform="translate(-26.171875, -30.56828193832599)"/><g class="label" style="" transform="translate(-18.671875, -2)"><rect/><foreignObject width="37.34375" height="24"><div xmlns="http://www.w3.org/1999/xhtml" style="display: table-cell; white-space: nowrap; line-height: 1.5; max-width: 200px; text-align: center;"><span class="nodeLabel"><p>Redis</p></span></div></foreignObject></g></g><g class="node default" id="flowchart-GW-2" transform="translate(856.953125, 410)"><rect class="basic label-container" style="" x="-61.25" y="-27" width="122.5" height="54"/><g class="label" style="" transform="translate(-31.25, -12)"><rect/><foreignObject width="62.5" height="24"><div xmlns="http://www.w3.org/1999/xhtml" style="display: table-cell; white-space: nowrap; line-height: 1.5; max-width: 200px; text-align: center;"><span class="nodeLabel"><p>Gateway</p></span></div></foreignObject></g></g><g class="node default" id="flowchart-AUTH-3" transform="translate(666.140625, 121)"><rect class="basic label-container" style="" x="-79.5625" y="-27" width="159.125" height="54"/><g class="label" style="" transform="translate(-49.5625, -12)"><rect/><foreignObject width="99.125" height="24"><div xmlns="http://www.w3.org/1999/xhtml" style="display: table-cell; white-space: nowrap; line-height: 1.5; max-width: 200px; text-align: center;"><span class="nodeLabel"><p>Authenticator</p></span></div></foreignObject></g></g><g class="node default" id="flowchart-API-4" transform="translate(666.140625, 261.3035650253296)"><rect class="basic label-container" style="" x="-41.40625" y="-27" width="82.8125" height="54"/><g class="label" style="" transform="translate(-11.40625, -12)"><rect/><foreignObject width="22.8125" height="24"><div xmlns="http://www.w3.org/1999/xhtml" style="display: table-cell; white-space: nowrap; line-height: 1.5; max-width: 200px; text-align: center;"><span class="nodeLabel"><p>API</p></span></div></foreignObject></g></g><g class="node default" id="flowchart-TAPI-5" transform="translate(666.140625, 416.3035650253296)"><rect class="basic label-container" style="" x="-65.5390625" y="-27" width="131.078125" height="54"/><g class="label" style="" transform="translate(-35.5390625, -12)"><rect/><foreignObject width="71.078125" height="24"><div xmlns="http://www.w3.org/1999/xhtml" style="display: table-cell; white-space: nowrap; line-height: 1.5; max-width: 200px; text-align: center;"><span class="nodeLabel"><p>TenantAPI</p></span></div></foreignObject></g></g><g class="node default" id="flowchart-EMAIL-6" transform="translate(479.3359375, 292.3035650253296)"><rect class="basic label-container" style="" x="-57.2421875" y="-27" width="114.484375" height="54"/><g class="label" style="" transform="translate(-27.2421875, -12)"><rect/><foreignObject width="54.484375" height="24"><div xmlns="http://www.w3.org/1999/xhtml" style="display: table-cell; white-space: nowrap; line-height: 1.5; max-width: 200px; text-align: center;"><span class="nodeLabel"><p>Emailer</p></span></div></foreignObject></g></g><g class="node default" id="flowchart-PDF-7" transform="translate(292.1328125, 354.3035650253296)"><rect class="basic label-container" style="" x="-79.9609375" y="-27" width="159.921875" height="54"/><g class="label" style="" transform="translate(-49.9609375, -12)"><rect/><foreignObject width="99.921875" height="24"><div xmlns="http://www.w3.org/1999/xhtml" style="display: table-cell; white-space: nowrap; line-height: 1.5; max-width: 200px; text-align: center;"><span class="nodeLabel"><p>PDFGenerator</p></span></div></foreignObject></g></g><g class="node default" id="flowchart-RESET-8" transform="translate(292.1328125, 121)"><rect class="basic label-container" style="" x="-75.3125" y="-27" width="150.625" height="54"/><g class="label" style="" transform="translate(-45.3125, -12)"><rect/><foreignObject width="90.625" height="24"><div xmlns="http://www.w3.org/1999/xhtml" style="display: table-cell; white-space: nowrap; line-height: 1.5; max-width: 200px; text-align: center;"><span class="nodeLabel"><p>ResetService</p></span></div></foreignObject></g></g><g class="node default" id="flowchart-LF-9" transform="translate(1114.25, 306)"><rect class="basic label-container" style="" x="-96.046875" y="-27" width="192.09375" height="54"/><g class="label" style="" transform="translate(-66.046875, -12)"><rect/><foreignObject width="132.09375" height="24"><div xmlns="http://www.w3.org/1999/xhtml" style="display: table-cell; white-space: nowrap; line-height: 1.5; max-width: 200px; text-align: center;"><span class="nodeLabel"><p>Landlord Frontend</p></span></div></foreignObject></g></g><g class="node default" id="flowchart-TF-10" transform="translate(1114.25, 410)"><rect class="basic label-container" style="" x="-88.875" y="-27" width="177.75" height="54"/><g class="label" style="" transform="translate(-58.875, -12)"><rect/><foreignObject width="117.75" height="24"><div xmlns="http://www.w3.org/1999/xhtml" style="display: table-cell; white-space: nowrap; line-height: 1.5; max-width: 200px; text-align: center;"><span class="nodeLabel"><p>Tenant Frontend</p></span></div></foreignObject></g></g></g></g></g></svg>